<?xml version="1.0" encoding="UTF-8" standalone="no"?>
<svg
   id="Capa_1"
   data-name="Capa 1"
   viewBox="0 0 1920 1080"
   version="1.1"
   sodipodi:docname="fondo.svg"
   inkscape:version="1.2.1 (9c6d41e410, 2022-07-14)"
   width="1920"
   height="1080"
   xmlns:inkscape="http://www.inkscape.org/namespaces/inkscape"
   xmlns:sodipodi="http://sodipodi.sourceforge.net/DTD/sodipodi-0.dtd"
   xmlns="http://www.w3.org/2000/svg"
   xmlns:svg="http://www.w3.org/2000/svg">
  <sodipodi:namedview
     id="namedview344"
     pagecolor="#ffffff"
     bordercolor="#000000"
     borderopacity="0.25"
     inkscape:showpageshadow="2"
     inkscape:pageopacity="0.0"
     inkscape:pagecheckerboard="0"
     inkscape:deskcolor="#d1d1d1"
     showgrid="false"
     inkscape:zoom="0.33849464"
     inkscape:cx="1019.2185"
     inkscape:cy="735.60988"
     inkscape:window-width="1366"
     inkscape:window-height="697"
     inkscape:window-x="-8"
     inkscape:window-y="-8"
     inkscape:window-maximized="1"
     inkscape:current-layer="Capa_1" />
  <defs
     id="defs255">
    <style
       id="style250">
      .cls-1 {
        fill: none;
      }

      .cls-2 {
        letter-spacing: -.04em;
      }

      .cls-3 {
        clip-path: url(#clippath);
      }

      .cls-4 {
        letter-spacing: -.02em;
      }

      .cls-5 {
        fill: #fabd00;
      }

      .cls-6 {
        fill: #fff;
      }

      .cls-7 {
        fill: #fcbc0a;
      }

      .cls-8 {
        fill: #fcbe00;
      }

      .cls-9 {
        fill: #552660;
      }

      .cls-10 {
        fill: #fbd809;
        font-family: Geomanist-Black, Geomanist;
        font-size: 103px;
      }

      .cls-11 {
        letter-spacing: -.01em;
      }
    </style>
    <clipPath
       id="clippath">
      <path
         class="cls-1"
         d="m 330.42,901 c -6.08,-1.08 -11,-4 -11,-4 -3.64,-2.16 -6.39,-4.81 -9,-8 -5.65,-6.91 -14.81,-21.46 -25,-41 -2.72,-0.95 -6.99,-2.56 -12,-5 -9.36,-4.57 -47.11,-24.66 -54,-62 -0.63,-3.42 -1.29,-8.55 -1,-15 5.67,-20.33 11.33,-40.67 17,-61 -0.03,-1 0.05,-2.89 1,-5 0.93,-2.06 2.24,-3.35 3,-4 -2.9,-2.76 -5.25,-5.16 -7,-7 -1.39,-1.46 -1.92,-2.06 -2,-3 -0.3,-3.45 5.85,-6.44 7,-7 1.58,-0.77 4.28,-1.82 8,-2 l 36,-87 c 0.47,-0.99 1.38,-2.55 3,-4 0.44,-0.39 1.49,-1.28 3,-2 3.31,-1.58 6.55,-1.25 8,-1 -0.54,-0.47 -1.52,-1.45 -2,-3 -0.25,-0.81 -0.69,-2.2 0,-3 0.78,-0.91 2.73,-0.73 4,0 1.6,0.91 1.52,2.33 3,3 1.09,0.5 2.26,0.24 3,0 1.05,-0.69 2.38,-1.42 4,-2 3.7,-1.33 7.01,-1.23 9,-1 0.12,-1.88 0.62,-5.45 3,-9 4.39,-6.55 11.65,-7.79 13,-8 0.23,-1.18 0.9,-3.7 3,-6 3.04,-3.34 6.94,-3.89 8,-4 3.33,-2.33 6.67,-4.67 10,-7 -2.67,-21 -5.33,-42 -8,-63 -1.55,-0.27 -4.3,-0.96 -7,-3 0,0 -1.83,-1.38 -3,-3 -2.71,-3.73 -1.9,-10.91 2,-18 v -41 c -0.7,-1.25 -2.58,-5 -2,-10 0.56,-4.78 3.04,-7.9 4,-9 0.37,-2.04 1.15,-4.98 3,-8 4.75,-7.76 13.12,-10.52 18,-12 24.85,-7.56 43,-9 43,-9 15.35,-1.22 32.41,-2.29 51,-3 6.73,-4.72 10.67,-9.54 13,-13 2.14,-3.18 3.05,-5.39 7,-13 2.94,-5.65 5.42,-10.17 7,-13 v -4 c -1.17,-2.25 -0.3,-4.51 1,-5 0.9,-0.34 2.09,0.12 3,1 3.53,-4.62 9.33,-11.15 18,-17 3.84,-2.59 14.5,-9.28 30,-12 5.7,-1 19.61,-3.28 36,2 2.73,0.88 30.28,10.24 43,38 2.19,4.77 7.19,16.06 6,31 -0.58,7.26 -2.44,13.1 -4,17 1.35,0.02 3.44,0.05 6,0 3.32,-0.06 3.34,-0.16 4,0 1.58,0.37 2.11,1.07 7,5 1.58,1.27 2.11,1.66 3,2 0.54,0.21 3.05,1.16 5,0 0.45,-0.26 0.97,-0.84 2,-2 1.34,-1.5 1.45,-1.91 2,-2 0.97,-0.15 1.96,0.9 3,2 1.22,1.29 1.42,2.03 2,2 0.63,-0.03 0.71,-0.89 2,-2 0.57,-0.49 1.46,-1.25 2,-1 0.75,0.35 -0.01,2.27 1,3 0.53,0.38 1.46,0.38 2,0 0.48,-0.34 0.46,-0.83 1,-1 0.2,-0.06 0.23,0 1,0 0.81,0 0.82,-0.05 1,0 0.71,0.21 1.31,1.37 1,2 -0.25,0.5 -0.88,0.27 -2,1 -0.5,0.32 -0.89,0.57 -1,1 -0.2,0.73 0.52,1.5 1,2 1.33,1.39 2.84,1.94 3,2 3.23,1.15 5.12,1.24 8,2 4.09,1.08 4.32,1.96 7,2 0.9,0.01 2.87,0.02 5,-1 0.76,-0.36 1.84,-1.24 4,-3 1.49,-1.21 1.76,-1.53 2,-2 0.64,-1.27 0.2,-2.08 1,-3 0.72,-0.83 1.77,-0.97 2,-1 1.41,-0.19 2.47,0.6 3,1 1.33,0.99 1.82,2.34 2,3 0.36,1.34 0.14,2.47 0,3 0.26,0.21 0.63,0.54 1,1 0.59,0.73 1.09,1.36 1,2 -0.11,0.74 -0.89,0.74 -2,2 -0.51,0.59 -1.2,1.36 -1,2 0.21,0.66 1.27,0.87 2,1 3.2,0.58 4.49,-0.96 6,0 0.4,0.25 0.93,0.84 2,2 0.5,0.54 0.63,0.73 1,1 0.98,0.72 1.42,0.42 2,1 0.58,0.58 0.26,1.04 1,2 0.54,0.7 0.74,0.5 1,1 0.3,0.58 0.08,0.96 0,3 -0.02,0.53 -0.03,0.79 0,1 0.14,0.93 0.67,1.59 1,2 0.45,0.56 0.86,0.87 1,1 0.65,0.59 1.08,2.06 0,6 0.54,0.45 1.26,1.11 2,2 2.19,2.66 2.86,5.38 3,6 0.96,4.25 -0.44,7.77 -1,9 0.53,0.11 2.41,0.56 3,2 0.76,1.86 -1.16,4.04 -2,5 -1.35,1.53 -1.89,1.28 -4,3 -3.09,2.52 -2.53,3.54 -5,5 0,0 -0.43,0.26 -5,2 -10,38.33 -20,76.67 -30,115 0.8,0.13 1.86,0.4 3,1 2.31,1.23 3.51,3.1 4,4 h 9 c 1.33,1.67 2.67,3.33 4,5 1.67,0.67 3.33,1.33 5,2 3.67,0.33 7.33,0.67 11,1 2,1.33 4,2.67 6,4 1.36,0.81 3.4,1.93 6,3 6.1,2.5 9.13,2.18 10,4 0.68,1.43 0.04,4.17 -6,10 2.63,0.19 6.65,0.83 11,3 2.54,1.27 4.52,2.73 6,4 39.33,55.33 78.67,110.67 118,166 0.56,0.86 1.34,2.22 2,4 2.08,5.65 1.14,10.95 0,17 -0.59,3.14 -1.41,6.31 -2,8 -4.59,13.24 -24.75,22.53 -28,24 -23.76,10.7 -48.22,10.88 -62,10 -2.6,3.66 -23.29,32.73 -36,46 -1.78,1.86 -4.59,4.65 -9,7 -7.37,3.93 -14.67,4.21 -19,4 -210.47,5 -364.81,7.64 -374,6 z"
         id="path252" />
    </clipPath>
    <clipPath
       id="clippath-4">
      <path
         class="cls-1"
         d="m 330.42,901 c -6.08,-1.08 -11,-4 -11,-4 -3.64,-2.16 -6.39,-4.81 -9,-8 -5.65,-6.91 -14.81,-21.46 -25,-41 -2.72,-0.95 -6.99,-2.56 -12,-5 -9.36,-4.57 -47.11,-24.66 -54,-62 -0.63,-3.42 -1.29,-8.55 -1,-15 5.67,-20.33 11.33,-40.67 17,-61 -0.03,-1 0.05,-2.89 1,-5 0.93,-2.06 2.24,-3.35 3,-4 -2.9,-2.76 -5.25,-5.16 -7,-7 -1.39,-1.46 -1.92,-2.06 -2,-3 -0.3,-3.45 5.85,-6.44 7,-7 1.58,-0.77 4.28,-1.82 8,-2 l 36,-87 c 0.47,-0.99 1.38,-2.55 3,-4 0.44,-0.39 1.49,-1.28 3,-2 3.31,-1.58 6.55,-1.25 8,-1 -0.54,-0.47 -1.52,-1.45 -2,-3 -0.25,-0.81 -0.69,-2.2 0,-3 0.78,-0.91 2.73,-0.73 4,0 1.6,0.91 1.52,2.33 3,3 1.09,0.5 2.26,0.24 3,0 1.05,-0.69 2.38,-1.42 4,-2 3.7,-1.33 7.01,-1.23 9,-1 0.12,-1.88 0.62,-5.45 3,-9 4.39,-6.55 11.65,-7.79 13,-8 0.23,-1.18 0.9,-3.7 3,-6 3.04,-3.34 6.94,-3.89 8,-4 3.33,-2.33 6.67,-4.67 10,-7 -2.67,-21 -5.33,-42 -8,-63 -1.55,-0.27 -4.3,-0.96 -7,-3 0,0 -1.83,-1.38 -3,-3 -2.71,-3.73 -1.9,-10.91 2,-18 v -41 c -0.7,-1.25 -2.58,-5 -2,-10 0.56,-4.78 3.04,-7.9 4,-9 0.37,-2.04 1.15,-4.98 3,-8 4.75,-7.76 13.12,-10.52 18,-12 24.85,-7.56 43,-9 43,-9 15.35,-1.22 32.41,-2.29 51,-3 6.73,-4.72 10.67,-9.54 13,-13 2.14,-3.18 3.05,-5.39 7,-13 2.94,-5.65 5.42,-10.17 7,-13 v -4 c -1.17,-2.25 -0.3,-4.51 1,-5 0.9,-0.34 2.09,0.12 3,1 3.53,-4.62 9.33,-11.15 18,-17 3.84,-2.59 14.5,-9.28 30,-12 5.7,-1 19.61,-3.28 36,2 2.73,0.88 30.28,10.24 43,38 2.19,4.77 7.19,16.06 6,31 -0.58,7.26 -2.44,13.1 -4,17 1.35,0.02 3.44,0.05 6,0 3.32,-0.06 3.34,-0.16 4,0 1.58,0.37 2.11,1.07 7,5 1.58,1.27 2.11,1.66 3,2 0.54,0.21 3.05,1.16 5,0 0.45,-0.26 0.97,-0.84 2,-2 1.34,-1.5 1.45,-1.91 2,-2 0.97,-0.15 1.96,0.9 3,2 1.22,1.29 1.42,2.03 2,2 0.63,-0.03 0.71,-0.89 2,-2 0.57,-0.49 1.46,-1.25 2,-1 0.75,0.35 -0.01,2.27 1,3 0.53,0.38 1.46,0.38 2,0 0.48,-0.34 0.46,-0.83 1,-1 0.2,-0.06 0.23,0 1,0 0.81,0 0.82,-0.05 1,0 0.71,0.21 1.31,1.37 1,2 -0.25,0.5 -0.88,0.27 -2,1 -0.5,0.32 -0.89,0.57 -1,1 -0.2,0.73 0.52,1.5 1,2 1.33,1.39 2.84,1.94 3,2 3.23,1.15 5.12,1.24 8,2 4.09,1.08 4.32,1.96 7,2 0.9,0.01 2.87,0.02 5,-1 0.76,-0.36 1.84,-1.24 4,-3 1.49,-1.21 1.76,-1.53 2,-2 0.64,-1.27 0.2,-2.08 1,-3 0.72,-0.83 1.77,-0.97 2,-1 1.41,-0.19 2.47,0.6 3,1 1.33,0.99 1.82,2.34 2,3 0.36,1.34 0.14,2.47 0,3 0.26,0.21 0.63,0.54 1,1 0.59,0.73 1.09,1.36 1,2 -0.11,0.74 -0.89,0.74 -2,2 -0.51,0.59 -1.2,1.36 -1,2 0.21,0.66 1.27,0.87 2,1 3.2,0.58 4.49,-0.96 6,0 0.4,0.25 0.93,0.84 2,2 0.5,0.54 0.63,0.73 1,1 0.98,0.72 1.42,0.42 2,1 0.58,0.58 0.26,1.04 1,2 0.54,0.7 0.74,0.5 1,1 0.3,0.58 0.08,0.96 0,3 -0.02,0.53 -0.03,0.79 0,1 0.14,0.93 0.67,1.59 1,2 0.45,0.56 0.86,0.87 1,1 0.65,0.59 1.08,2.06 0,6 0.54,0.45 1.26,1.11 2,2 2.19,2.66 2.86,5.38 3,6 0.96,4.25 -0.44,7.77 -1,9 0.53,0.11 2.41,0.56 3,2 0.76,1.86 -1.16,4.04 -2,5 -1.35,1.53 -1.89,1.28 -4,3 -3.09,2.52 -2.53,3.54 -5,5 0,0 -0.43,0.26 -5,2 -10,38.33 -20,76.67 -30,115 0.8,0.13 1.86,0.4 3,1 2.31,1.23 3.51,3.1 4,4 h 9 c 1.33,1.67 2.67,3.33 4,5 1.67,0.67 3.33,1.33 5,2 3.67,0.33 7.33,0.67 11,1 2,1.33 4,2.67 6,4 1.36,0.81 3.4,1.93 6,3 6.1,2.5 9.13,2.18 10,4 0.68,1.43 0.04,4.17 -6,10 2.63,0.19 6.65,0.83 11,3 2.54,1.27 4.52,2.73 6,4 39.33,55.33 78.67,110.67 118,166 0.56,0.86 1.34,2.22 2,4 2.08,5.65 1.14,10.95 0,17 -0.59,3.14 -1.41,6.31 -2,8 -4.59,13.24 -24.75,22.53 -28,24 -23.76,10.7 -48.22,10.88 -62,10 -2.6,3.66 -23.29,32.73 -36,46 -1.78,1.86 -4.59,4.65 -9,7 -7.37,3.93 -14.67,4.21 -19,4 -210.47,5 -364.81,7.64 -374,6 z"
         id="path252-3" />
    </clipPath>
  </defs>
  <path
     class="cls-7"
     d="m 317.30465,578.15354 c -9.59,6.61 -21.33,16.02 -33,29 -12.76,14.19 -21.33,28.08 -27,39 -1.14,-3.41 -2.81,-10.09 -1,-18 0.74,-3.24 1.89,-5.92 3,-8 -4.56,6.03 -11.32,13.21 -21,19 -30.63,18.32 -64.56,7.24 -71,5 10.02,-2.7 24.47,-7.61 40,-17 19.51,-11.8 26.13,-21.85 39,-31 13.42,-9.54 35.13,-19.18 71,-18 z"
     id="path259"
     style="fill:#4f2582;fill-opacity:1" />
  <path
     class="cls-7"
     d="m 244.30465,581.15354 c -9.03,3.71 -18.8,8.3 -29,14 -16.91,9.45 -30.85,19.63 -42,29 0.76,-3.76 1.98,-8.2 4,-13 1.27,-3.02 2.65,-5.69 4,-8 -6.49,7.39 -18.2,18.61 -36,26 -35.2,14.61 -67.689996,3.21 -75.999996,0 10.42,-2.02 26.01,-6.06 42.999996,-15 27.74,-14.59 34.44,-29.19 53,-38 14.91,-7.08 39.16,-11.23 79,5 z"
     id="path261"
     style="fill:#4f2582;fill-opacity:1" />
  <path
     class="cls-7"
     d="m 277.30465,577.15354 c -3.67,-0.04 -9.26,-0.22 -16,-1 -34.73,-4 -45.12,-17.34 -69,-18 -14.55,-0.4 -32.42,4.91 -45,13 -28,18 -32,25 -51.999996,25 -9.74,0 -18.75,-0.9 -37,-18 20.45,5.84 34.47,1.26 40,-1 10.399996,-4.25 18.149996,-11.48 22.999996,-16 11.66,-10.88 12.13,-16.45 21,-22 5.37,-3.36 13.82,-6.7 27,-6 -2.48,-1.71 -6.95,-4.25 -13,-5 -2.69,-0.33 -5.07,-0.24 -7,0 5.19,-3.66 13.32,-8.23 24,-10 27.21,-4.5 49.28,14.07 54,18 9.39,7.83 8.28,10.61 20,21 11.38,10.08 22.42,16.31 30,20 z"
     id="path263"
     style="fill:#4f2582;fill-opacity:1" />
  <g
     id="g275"
     transform="translate(686.00684,-453.26097)">
    <path
       class="cls-7"
       d="m 951,689.17 c 9.59,-6.61 21.33,-16.02 33,-29 12.76,-14.19 21.33,-28.08 27,-39 1.14,3.41 2.81,10.09 1,18 -0.74,3.24 -1.89,5.92 -3,8 4.56,-6.03 11.32,-13.21 21,-19 30.63,-18.32 64.56,-7.24 71,-5 -10.02,2.7 -24.47,7.61 -40,17 -19.51,11.8 -26.13,21.85 -39,31 -13.42,9.54 -35.13,19.18 -71,18 z"
       id="path269"
       style="fill:#4f2582;fill-opacity:1" />
    <path
       class="cls-7"
       d="m 1024,686.17 c 9.03,-3.71 18.8,-8.3 29,-14 16.91,-9.45 30.85,-19.63 42,-29 -0.76,3.76 -1.98,8.2 -4,13 -1.27,3.02 -2.65,5.69 -4,8 6.49,-7.39 18.2,-18.61 36,-26 35.2,-14.61 67.69,-3.21 76,0 -10.42,2.02 -26.01,6.06 -43,15 -27.74,14.59 -34.44,29.19 -53,38 -14.91,7.08 -39.16,11.23 -79,-5 z"
       id="path271"
       style="fill:#4f2582;fill-opacity:1" />
    <path
       class="cls-7"
       d="m 991,690.17 c 3.67,0.04 9.26,0.22 16,1 34.73,4 45.12,17.34 69,18 14.55,0.4 32.42,-4.91 45,-13 28,-18 32,-25 52,-25 9.74,0 18.75,0.9 37,18 -20.45,-5.84 -34.47,-1.26 -40,1 -10.4,4.25 -18.15,11.48 -23,16 -11.66,10.88 -12.13,16.45 -21,22 -5.37,3.36 -13.82,6.7 -27,6 2.48,1.71 6.95,4.25 13,5 2.69,0.33 5.07,0.24 7,0 -5.19,3.66 -13.32,8.23 -24,10 -27.21,4.5 -49.28,-14.07 -54,-18 -9.39,-7.83 -8.28,-10.61 -20,-21 -11.38,-10.08 -22.42,-16.31 -30,-20 z"
       id="path273"
       style="fill:#4f2582;fill-opacity:1" />
  </g>
  <g
     id="g335">
    <path
       class="cls-6"
       d="m 882.75,748.9 c 0.29,-0.67 0.3,-1.41 0.03,-2.04 -0.26,-0.59 -0.73,-1.02 -1.33,-1.23 -1,-0.34 -2.17,0.05 -2.84,0.97 -0.12,0.17 -0.23,0.34 -0.31,0.53 l -4.58,10.41 c -0.29,0.67 -0.3,1.41 -0.03,2.04 0.09,0.2 0.2,0.38 0.33,0.54 0.12,0.14 0.25,0.27 0.39,0.37 0.18,0.14 0.39,0.24 0.61,0.32 1.21,0.42 2.6,-0.24 3.15,-1.5 z"
       id="path315" />
    <path
       class="cls-6"
       d="m 894.59,758.95 c 0.44,-0.56 0.63,-1.27 0.55,-1.96 -0.08,-0.63 -0.4,-1.18 -0.91,-1.57 -0.48,-0.36 -1.08,-0.51 -1.69,-0.42 -0.68,0.09 -1.31,0.48 -1.75,1.05 l -5.93,7.86 c -0.72,0.97 -0.7,2.27 0,3.12 0.11,0.13 0.23,0.25 0.38,0.36 v 0 c 0.48,0.36 1.08,0.51 1.69,0.43 0.68,-0.09 1.32,-0.48 1.75,-1.05 l 5.9,-7.82 z m -9.1,8.12 v 0 c 0,0 0,0 0,0 z"
       id="path317" />
    <path
       class="cls-6"
       d="m 905.72,768.3 c -0.32,-0.55 -0.83,-0.93 -1.45,-1.07 -0.67,-0.15 -1.4,0 -2,0.4 l -7.94,5.4 c -0.16,0.11 -0.3,0.23 -0.44,0.37 -0.81,0.84 -1,2.07 -0.46,3.01 0.06,0.11 0.14,0.22 0.22,0.32 0.05,0.06 0.11,0.13 0.17,0.18 v 0 c 0.29,0.28 0.66,0.48 1.07,0.58 0.67,0.16 1.4,0 2,-0.4 l 7.94,-5.4 c 1.14,-0.78 1.53,-2.26 0.89,-3.38 z"
       id="path319" />
    <path
       class="cls-6"
       d="m 913.4,782.31 c -0.16,-0.64 -0.58,-1.15 -1.16,-1.45 -0.61,-0.31 -1.35,-0.34 -2.03,-0.07 l -9.78,3.89 c -0.32,0.13 -0.61,0.31 -0.86,0.55 -0.71,0.67 -1.01,1.63 -0.79,2.52 0.08,0.33 0.24,0.63 0.45,0.88 0.03,0.03 0.06,0.07 0.09,0.1 0.18,0.19 0.39,0.35 0.63,0.47 0.61,0.31 1.35,0.34 2.03,0.07 l 9.78,-3.89 c 1.24,-0.49 1.96,-1.84 1.65,-3.07 z"
       id="path321" />
    <path
       class="cls-6"
       d="m 917.12,798.44 c 0.04,-0.7 -0.23,-1.36 -0.71,-1.81 -0.49,-0.46 -1.17,-0.68 -1.86,-0.6 l -10.77,1.25 c -0.6,0.07 -1.18,0.36 -1.61,0.81 -0.46,0.47 -0.73,1.09 -0.76,1.72 -0.03,0.59 0.16,1.17 0.52,1.61 0.05,0.06 0.11,0.12 0.17,0.18 l 0.03,0.02 c 0.49,0.46 1.17,0.68 1.86,0.6 l 10.77,-1.25 c 1.27,-0.15 2.31,-1.26 2.38,-2.53 z"
       id="path323" />
    <path
       class="cls-6"
       d="m 901.58,815.25 c 0.05,0.08 0.11,0.16 0.17,0.23 l 0.02,0.02 v 0 c 0.36,0.42 0.86,0.7 1.42,0.78 l 10.09,1.48 c 1.25,0.18 2.54,-0.64 2.92,-1.87 0.21,-0.68 0.13,-1.4 -0.23,-1.98 -0.35,-0.56 -0.94,-0.94 -1.61,-1.04 l -10.09,-1.48 c -0.73,-0.11 -1.49,0.12 -2.09,0.62 -0.39,0.34 -0.68,0.77 -0.84,1.25 -0.21,0.68 -0.13,1.4 0.23,1.98 z"
       id="path325" />
    <path
       class="cls-6"
       d="m 907.61,834.69 c 0.5,-0.53 0.76,-1.23 0.71,-1.91 -0.05,-0.64 -0.35,-1.21 -0.85,-1.61 l -8.18,-6.46 c -0.82,-0.65 -2.01,-0.68 -2.95,-0.08 -0.19,0.12 -0.37,0.27 -0.52,0.43 -0.5,0.53 -0.76,1.23 -0.71,1.91 0.03,0.38 0.15,0.74 0.35,1.05 v 0 c 0.05,0.08 0.1,0.15 0.16,0.22 0.1,0.12 0.22,0.24 0.35,0.34 l 8.18,6.46 c 1.01,0.79 2.53,0.64 3.47,-0.35 z"
       id="path327" />
    <path
       class="cls-6"
       d="m 894.68,841.15 -4.46,-5.36 c -0.39,-0.47 -0.96,-0.76 -1.58,-0.81 -0.69,-0.05 -1.39,0.19 -1.93,0.67 -0.06,0.05 -0.11,0.1 -0.16,0.15 -0.92,0.95 -1.02,2.38 -0.24,3.33 v 0 c 0,0 4.46,5.36 4.46,5.36 0.05,0.06 0.11,0.12 0.16,0.18 0.38,0.37 0.87,0.59 1.42,0.63 0.69,0.05 1.39,-0.19 1.93,-0.67 1.05,-0.92 1.22,-2.5 0.39,-3.48 z"
       id="path329" />
    <path
       class="cls-6"
       d="m 879.09,852.01 -1.73,-7.92 c -0.14,-0.64 -0.55,-1.19 -1.12,-1.51 -0.6,-0.33 -1.33,-0.37 -2.01,-0.12 -0.38,0.14 -0.72,0.37 -1.01,0.66 -0.63,0.65 -0.89,1.53 -0.71,2.36 l 1.73,7.92 c 0.08,0.36 0.24,0.69 0.47,0.96 0.05,0.06 0.11,0.13 0.17,0.19 0.14,0.14 0.31,0.26 0.48,0.36 0.6,0.33 1.33,0.37 2.01,0.12 1.23,-0.46 1.99,-1.79 1.72,-3.02 z"
       id="path331" />
    <path
       class="cls-6"
       d="m 863.59,856.73 -0.36,-10.24 c -0.02,-0.68 -0.34,-1.31 -0.86,-1.72 -0.53,-0.42 -1.23,-0.58 -1.93,-0.44 -0.53,0.11 -1.02,0.38 -1.41,0.78 -0.51,0.53 -0.79,1.23 -0.76,1.93 l 0.36,10.24 c 0.02,0.52 0.2,1.01 0.52,1.39 0.05,0.06 0.11,0.13 0.17,0.19 0.05,0.05 0.11,0.1 0.17,0.15 0.53,0.42 1.23,0.58 1.93,0.44 1.26,-0.25 2.22,-1.44 2.17,-2.71 z"
       id="path333" />
  </g>
  <path
     class="cls-5"
     d="m 1536.9077,444.81238 c 0,0 -15.27,-8.2 -26.55,3.33 -13.0699,13.36 -15.5999,20.63 -26.5699,23.62 -10.97,2.99 -28.89,-0.63 -36.12,3.08 0,0 11.62,3.89 20.37,7.16 8.76,3.27 21.42,13.78 37.22,-2.89 0,0 -6.65,1.1 -11.24,0.72 0,0 12.24,0.78 18.4799,-19.69 3.11,-10.19 11.58,-13.14 24.4,-15.32 z"
     id="path341"
     style="fill:#4f2582;fill-opacity:1" />
  <path
     class="cls-5"
     d="m 2.3384094,887.64925 c 30.2946996,11.25 85.9886996,28.65 161.4061806,34 16.992,1.21 157.0429,9.95 273.1489,-40 101.5795,-43.71 67.8793,-82.03 173.8221,-129 89.3942,-39.64 190.6899,-46.62 225.2592,-49 54.4879,-3.76 120.2919,1.5 251.86461,12 122.6155,9.79 147.0392,15.6 211.0696,13 41.4335,-1.68 107.344,-4.36 172.0484,-24 120.3806,-36.55 102.3421,-91.08 221.7118,-144 3.6006,-1.59 6.8819,-3.05 11.8128,-5.1 78.0248,-32.33997 157.5927,-41.42997 213.4463,-43.89997 V 1083.6492 H 2.3384094 Z"
     id="path371"
     style="fill:#4f2582;stroke-width:1.3318;fill-opacity:1" />
</svg>
