<?xml version="1.0" encoding="UTF-8" standalone="no"?>
<svg
   xmlns:dc="http://purl.org/dc/elements/1.1/"
   xmlns:cc="http://creativecommons.org/ns#"
   xmlns:rdf="http://www.w3.org/1999/02/22-rdf-syntax-ns#"
   xmlns:svg="http://www.w3.org/2000/svg"
   xmlns="http://www.w3.org/2000/svg"
   xmlns:sodipodi="http://sodipodi.sourceforge.net/DTD/sodipodi-0.dtd"
   xmlns:inkscape="http://www.inkscape.org/namespaces/inkscape"
   id="Capa_1"
   data-name="Capa 1"
   viewBox="0 0 551.89503 395.645"
   version="1.1"
   sodipodi:docname="letrasnav.svg"
   width="551.89502"
   height="395.64499"
   inkscape:version="1.0.2-2 (e86c870879, 2021-01-15)">
  <metadata
     id="metadata143">
    <rdf:RDF>
      <cc:Work
         rdf:about="">
        <dc:format>image/svg+xml</dc:format>
        <dc:type
           rdf:resource="http://purl.org/dc/dcmitype/StillImage" />
        <dc:title></dc:title>
      </cc:Work>
    </rdf:RDF>
  </metadata>
  <sodipodi:namedview
     pagecolor="#ffffff"
     bordercolor="#666666"
     borderopacity="1"
     objecttolerance="10"
     gridtolerance="10"
     guidetolerance="10"
     inkscape:pageopacity="0"
     inkscape:pageshadow="2"
     inkscape:window-width="1366"
     inkscape:window-height="697"
     id="namedview141"
     showgrid="false"
     inkscape:zoom="0.81755366"
     inkscape:cx="264.7309"
     inkscape:cy="256.50531"
     inkscape:window-x="-8"
     inkscape:window-y="-8"
     inkscape:window-maximized="1"
     inkscape:current-layer="Capa_1" />
  <defs
     id="defs4">
    <style
       id="style2">
      .cls-1 {
        fill: #fabd00;
      }

      .cls-2 {
        fill: #fff;
      }

      .cls-3 {
        fill: #4f2582;
      }
    </style>
  </defs>
  <g
     id="g48"
     transform="matrix(1.5214612,0,0,1.4945958,-460.9593,-840.07951)">
    <g
       id="g18">
      <path
         class="cls-1"
         d="m 417.22,568.64 c 1.61,-0.84 5.77,-1.26 12.48,-1.26 h 5.03 c 3.52,0.1 5.28,1.26 5.28,3.47 0,0.47 -0.08,0.99 -0.25,1.56 l -19.06,61.67 c -0.7,2.48 -4.41,3.72 -11.12,3.72 h -10.06 c -6.71,0 -10.41,-1.24 -11.12,-3.72 l -19.07,-61.67 c -0.17,-0.57 -0.25,-1.09 -0.25,-1.56 0,-2.21 1.76,-3.37 5.28,-3.47 h 5.03 c 6.71,0 10.9,0.42 12.58,1.26 1.68,0.84 4.41,8.8 8.2,23.89 l 4.38,14.64 4.38,-14.64 c 3.92,-15.09 6.69,-23.06 8.3,-23.89 z"
         id="path10" />
      <path
         class="cls-1"
         d="m 466.87,572.42 v 60.37 c 0,3.35 -1.68,5.03 -5.03,5.03 h -15.09 c -3.35,0 -5.03,-1.68 -5.03,-5.03 v -60.37 c 0,-3.35 1.68,-5.03 5.03,-5.03 h 15.09 c 3.35,0 5.03,1.68 5.03,5.03 z"
         id="path12" />
      <path
         class="cls-1"
         d="m 516.67,568.64 c 1.61,-0.84 5.77,-1.26 12.48,-1.26 h 5.03 c 3.52,0.1 5.28,1.26 5.28,3.47 0,0.47 -0.08,0.99 -0.25,1.56 l -19.07,61.67 c -0.7,2.48 -4.41,3.72 -11.12,3.72 h -10.06 c -6.71,0 -10.41,-1.24 -11.12,-3.72 l -19.06,-61.67 c -0.17,-0.57 -0.25,-1.09 -0.25,-1.56 0,-2.21 1.76,-3.37 5.28,-3.47 h 5.03 c 6.71,0 10.9,0.42 12.58,1.26 1.68,0.84 4.41,8.8 8.2,23.89 l 4.38,14.64 4.38,-14.64 c 3.92,-15.09 6.69,-23.06 8.3,-23.89 z"
         id="path14" />
      <path
         class="cls-1"
         d="m 556.86,632.78 c 0,1.68 -0.84,2.94 -2.52,3.77 -1.68,0.84 -5.87,1.26 -12.58,1.26 h -5.03 c -3.52,-0.1 -5.28,-1.26 -5.28,-3.47 0,-0.47 0.08,-0.99 0.25,-1.56 l 19.07,-61.67 c 0.7,-2.48 4.41,-3.72 11.12,-3.72 h 10.06 c 6.71,0 10.41,1.24 11.12,3.72 l 19.06,61.67 c 0.17,0.57 0.25,1.09 0.25,1.56 0,2.21 -1.76,3.37 -5.28,3.47 h -5.03 c -6.71,0 -10.87,-0.42 -12.48,-1.26 -1.51,-0.8 -2.26,-1.96 -2.26,-3.47 v -0.3 z m 10.06,-34.76 -4.38,14.64 h 8.75 l -4.38,-14.64 z"
         id="path16" />
    </g>
    <g
       id="g24">
      <path
         class="cls-1"
         d="m 482.11,768.6 v 8.32 c 0,2.78 -1.39,4.16 -4.16,4.16 H 461.3 v 4.16 h 12.49 c 2.77,0 4.16,1.39 4.16,4.16 v 8.32 c 0,2.77 -1.39,4.16 -4.16,4.16 H 461.3 v 4.16 h 16.65 c 2.77,0 4.16,1.39 4.16,4.16 v 8.32 c 0,2.77 -1.39,4.16 -4.16,4.16 h -33.3 c -2.77,0 -4.16,-1.39 -4.16,-4.16 v -49.95 c 0,-2.77 1.39,-4.16 4.16,-4.16 h 33.3 c 2.77,0 4.16,1.39 4.16,4.16 z"
         id="path20" />
      <path
         class="cls-1"
         d="m 490.73,814.18 c -5.69,-5.69 -8.53,-12.56 -8.53,-20.6 0,-8.04 2.84,-14.91 8.53,-20.6 5.69,-5.69 12.56,-8.53 20.6,-8.53 6.91,0 12.95,2.1 18.11,6.29 1.03,0.78 1.54,1.6 1.54,2.46 0,0.64 -0.31,1.32 -0.92,2.04 l -10.07,10.03 c -0.92,1.11 -1.76,1.66 -2.54,1.66 -0.39,0 -0.93,-0.28 -1.62,-0.83 -0.69,-0.55 -2.19,-0.83 -4.5,-0.83 -2.31,0 -4.27,0.81 -5.89,2.43 -1.62,1.62 -2.44,3.59 -2.44,5.89 0,2.3 0.81,4.27 2.44,5.89 1.62,1.62 3.59,2.44 5.89,2.44 1.17,0 2.23,-0.21 3.21,-0.62 0.89,-0.69 1.72,-1.04 2.5,-1.04 0.94,0 1.79,0.56 2.54,1.66 l 10.24,10.28 c 0.72,0.67 1.08,1.33 1.08,2 0,0.78 -0.5,1.54 -1.5,2.29 -5.16,4.16 -11.18,6.24 -18.06,6.24 -8.05,0 -14.92,-2.84 -20.6,-8.53 z"
         id="path22" />
    </g>
    <g
       id="g46">
      <g
         id="g38">
        <path
           class="cls-2"
           d="m 329.51,700.02 v 30.18 c 0,3.35 -1.68,5.03 -5.03,5.03 h -15.09 c -3.35,0 -5.03,-1.68 -5.03,-5.03 v -60.37 c 0,-3.35 1.68,-5.03 5.03,-5.03 h 14.99 c 3.42,0 5.8,1.02 7.14,3.07 l 13.08,19.57 12.88,-19.32 c 1.47,-2.21 3.86,-3.32 7.14,-3.32 h 15.19 c 3.35,0 5.03,1.68 5.03,5.03 v 60.37 c 0,3.35 -1.68,5.03 -5.03,5.03 h -15.09 c -3.35,0 -5.03,-1.68 -5.03,-5.03 v -30.18 c -6.71,11.94 -10.9,18.55 -12.58,19.82 -0.84,0.64 -1.68,0.96 -2.52,0.96 -0.84,0 -1.89,-0.48 -3.14,-1.43 -1.26,-0.96 -5.24,-7.4 -11.95,-19.34 z"
           id="path26" />
        <path
           class="cls-2"
           d="m 443.95,669.84 v 10.06 c 0,3.35 -1.68,5.03 -5.03,5.03 H 418.8 v 5.03 h 15.09 c 3.35,0 5.03,1.68 5.03,5.03 v 10.06 c 0,3.35 -1.68,5.03 -5.03,5.03 H 418.8 v 5.03 h 20.12 c 3.35,0 5.03,1.68 5.03,5.03 v 10.06 c 0,3.35 -1.68,5.03 -5.03,5.03 h -40.24 c -3.35,0 -5.03,-1.68 -5.03,-5.03 v -60.37 c 0,-3.35 1.68,-5.03 5.03,-5.03 h 40.24 c 3.35,0 5.03,1.68 5.03,5.03 z"
           id="path28" />
        <path
           class="cls-2"
           d="m 462.52,699.97 -14.24,-17.05 c -0.97,-1.17 -1.46,-2.3 -1.46,-3.37 0,-1.31 0.7,-2.55 2.11,-3.72 l 11.62,-9.66 c 1.17,-0.97 2.3,-1.46 3.37,-1.46 1.31,0 2.55,0.7 3.72,2.11 l 11.27,13.53 11.27,-13.53 c 1.17,-1.41 2.41,-2.11 3.72,-2.11 1.07,0 2.2,0.49 3.37,1.46 l 11.62,9.66 c 1.41,1.17 2.11,2.41 2.11,3.72 0,1.07 -0.49,2.2 -1.46,3.37 l -14.24,17.05 14.24,17.05 c 0.97,1.17 1.46,2.3 1.46,3.37 0,1.31 -0.7,2.55 -2.11,3.72 l -11.62,9.66 c -1.17,0.97 -2.3,1.46 -3.37,1.46 -1.31,0 -2.55,-0.7 -3.72,-2.11 l -11.27,-13.48 -11.27,13.48 c -1.18,1.41 -2.41,2.11 -3.72,2.11 -1.07,0 -2.2,-0.49 -3.37,-1.46 l -11.62,-9.66 c -1.38,-1.17 -2.06,-2.4 -2.06,-3.67 0,-1.11 0.49,-2.25 1.46,-3.42 z"
           id="path30" />
        <path
           class="cls-2"
           d="m 539.03,669.84 v 60.37 c 0,3.35 -1.68,5.03 -5.03,5.03 h -15.09 c -3.35,0 -5.03,-1.68 -5.03,-5.03 v -60.37 c 0,-3.35 1.68,-5.03 5.03,-5.03 H 534 c 3.35,0 5.03,1.68 5.03,5.03 z"
           id="path32" />
        <path
           class="cls-2"
           d="m 553.07,724.92 c -6.88,-6.87 -10.31,-15.17 -10.31,-24.9 0,-9.73 3.44,-18.03 10.31,-24.9 6.87,-6.87 15.17,-10.31 24.9,-10.31 8.35,0 15.65,2.53 21.88,7.6 1.24,0.94 1.86,1.93 1.86,2.97 0,0.77 -0.37,1.59 -1.11,2.46 l -12.17,12.12 c -1.11,1.34 -2.13,2.01 -3.07,2.01 -0.47,0 -1.12,-0.33 -1.96,-1.01 -0.84,-0.67 -2.65,-1.01 -5.43,-1.01 -2.78,0 -5.16,0.98 -7.12,2.94 -1.96,1.96 -2.94,4.33 -2.94,7.12 0,2.79 0.98,5.16 2.94,7.12 1.96,1.96 4.33,2.94 7.12,2.94 1.41,0 2.7,-0.25 3.87,-0.75 1.07,-0.84 2.08,-1.26 3.02,-1.26 1.14,0 2.16,0.67 3.07,2.01 l 12.37,12.43 c 0.87,0.8 1.31,1.61 1.31,2.41 0,0.94 -0.6,1.86 -1.81,2.77 -6.24,5.03 -13.52,7.55 -21.83,7.55 -9.73,0 -18.03,-3.44 -24.9,-10.31 z"
           id="path34" />
        <path
           class="cls-2"
           d="m 631.89,735.23 c -9.73,0 -18.03,-3.44 -24.9,-10.31 -6.87,-6.87 -10.31,-15.17 -10.31,-24.9 0,-9.73 3.44,-18.03 10.31,-24.9 6.87,-6.87 15.17,-10.31 24.9,-10.31 9.73,0 18.03,3.44 24.9,10.31 6.87,6.88 10.31,15.18 10.31,24.9 0,9.72 -3.44,18.03 -10.31,24.9 -6.87,6.88 -15.18,10.31 -24.9,10.31 z m 0,-45.27 c -2.78,0 -5.16,0.98 -7.12,2.94 -1.96,1.96 -2.94,4.33 -2.94,7.12 0,2.79 0.98,5.16 2.94,7.12 1.96,1.96 4.33,2.94 7.12,2.94 2.79,0 5.16,-0.98 7.12,-2.94 1.96,-1.96 2.94,-4.33 2.94,-7.12 0,-2.79 -0.98,-5.16 -2.94,-7.12 -1.96,-1.96 -4.33,-2.94 -7.12,-2.94 z"
           id="path36" />
      </g>
      <g
         id="g44">
        <path
           class="cls-2"
           d="m 424.58,656.02 c -10.21,4.31 -21.84,2.34 -18.61,0.97 16.05,-6.78 16.43,-13.83 19.66,-15.2 3.23,-1.36 6.32,-1.35 7.69,1.88 2.47,5.85 -5.5,10.98 -8.73,12.35 z"
           id="path40" />
        <path
           class="cls-2"
           d="m 432.4,641.18 c 1.36,-1.55 2.93,-1.49 2.93,-1.49 0,0 -2.21,-1.94 -4.27,0.41 -1.42,1.62 -0.27,3.48 0.61,4.5 -0.14,-1.17 -0.08,-2.49 0.73,-3.42 z"
           id="path42" />
      </g>
    </g>
  </g>
</svg>
