<?xml version="1.0" encoding="UTF-8" standalone="no"?>
<svg
   xmlns:dc="http://purl.org/dc/elements/1.1/"
   xmlns:cc="http://creativecommons.org/ns#"
   xmlns:rdf="http://www.w3.org/1999/02/22-rdf-syntax-ns#"
   xmlns:svg="http://www.w3.org/2000/svg"
   xmlns="http://www.w3.org/2000/svg"
   xmlns:sodipodi="http://sodipodi.sourceforge.net/DTD/sodipodi-0.dtd"
   xmlns:inkscape="http://www.inkscape.org/namespaces/inkscape"
   id="Capa_1"
   data-name="Capa 1"
   viewBox="0 0 554.00001 554.00001"
   version="1.1"
   sodipodi:docname="logonav554.svg"
   width="554"
   height="554"
   inkscape:version="1.0.2-2 (e86c870879, 2021-01-15)">
  <metadata
     id="metadata143">
    <rdf:RDF>
      <cc:Work
         rdf:about="">
        <dc:format>image/svg+xml</dc:format>
        <dc:type
           rdf:resource="http://purl.org/dc/dcmitype/StillImage" />
        <dc:title></dc:title>
      </cc:Work>
    </rdf:RDF>
  </metadata>
  <sodipodi:namedview
     pagecolor="#ffffff"
     bordercolor="#666666"
     borderopacity="1"
     objecttolerance="10"
     gridtolerance="10"
     guidetolerance="10"
     inkscape:pageopacity="0"
     inkscape:pageshadow="2"
     inkscape:window-width="1366"
     inkscape:window-height="697"
     id="namedview141"
     showgrid="false"
     inkscape:zoom="0.81755366"
     inkscape:cx="264.7309"
     inkscape:cy="256.50531"
     inkscape:window-x="-8"
     inkscape:window-y="-8"
     inkscape:window-maximized="1"
     inkscape:current-layer="Capa_1" />
  <defs
     id="defs4">
    <style
       id="style2">
      .cls-1 {
        fill: #fabd00;
      }

      .cls-2 {
        fill: #fff;
      }

      .cls-3 {
        fill: #4f2582;
      }
    </style>
  </defs>
  <g
     id="g212"
     transform="matrix(0.60427573,0,0,0.60363049,0.4463227,-0.19423449)">
    <rect
       class="cls-3"
       y="0.49000001"
       width="916.79999"
       height="916.79999"
       id="rect6"
       x="0" />
    <circle
       class="cls-3"
       cx="459.85001"
       cy="456.45999"
       id="circle8"
       r="456.95001" />
    <g
       id="g48">
      <g
         id="g18">
        <path
           class="cls-1"
           d="m 417.22,568.64 c 1.61,-0.84 5.77,-1.26 12.48,-1.26 h 5.03 c 3.52,0.1 5.28,1.26 5.28,3.47 0,0.47 -0.08,0.99 -0.25,1.56 l -19.06,61.67 c -0.7,2.48 -4.41,3.72 -11.12,3.72 h -10.06 c -6.71,0 -10.41,-1.24 -11.12,-3.72 l -19.07,-61.67 c -0.17,-0.57 -0.25,-1.09 -0.25,-1.56 0,-2.21 1.76,-3.37 5.28,-3.47 h 5.03 c 6.71,0 10.9,0.42 12.58,1.26 1.68,0.84 4.41,8.8 8.2,23.89 l 4.38,14.64 4.38,-14.64 c 3.92,-15.09 6.69,-23.06 8.3,-23.89 z"
           id="path10" />
        <path
           class="cls-1"
           d="m 466.87,572.42 v 60.37 c 0,3.35 -1.68,5.03 -5.03,5.03 h -15.09 c -3.35,0 -5.03,-1.68 -5.03,-5.03 v -60.37 c 0,-3.35 1.68,-5.03 5.03,-5.03 h 15.09 c 3.35,0 5.03,1.68 5.03,5.03 z"
           id="path12" />
        <path
           class="cls-1"
           d="m 516.67,568.64 c 1.61,-0.84 5.77,-1.26 12.48,-1.26 h 5.03 c 3.52,0.1 5.28,1.26 5.28,3.47 0,0.47 -0.08,0.99 -0.25,1.56 l -19.07,61.67 c -0.7,2.48 -4.41,3.72 -11.12,3.72 h -10.06 c -6.71,0 -10.41,-1.24 -11.12,-3.72 l -19.06,-61.67 c -0.17,-0.57 -0.25,-1.09 -0.25,-1.56 0,-2.21 1.76,-3.37 5.28,-3.47 h 5.03 c 6.71,0 10.9,0.42 12.58,1.26 1.68,0.84 4.41,8.8 8.2,23.89 l 4.38,14.64 4.38,-14.64 c 3.92,-15.09 6.69,-23.06 8.3,-23.89 z"
           id="path14" />
        <path
           class="cls-1"
           d="m 556.86,632.78 c 0,1.68 -0.84,2.94 -2.52,3.77 -1.68,0.84 -5.87,1.26 -12.58,1.26 h -5.03 c -3.52,-0.1 -5.28,-1.26 -5.28,-3.47 0,-0.47 0.08,-0.99 0.25,-1.56 l 19.07,-61.67 c 0.7,-2.48 4.41,-3.72 11.12,-3.72 h 10.06 c 6.71,0 10.41,1.24 11.12,3.72 l 19.06,61.67 c 0.17,0.57 0.25,1.09 0.25,1.56 0,2.21 -1.76,3.37 -5.28,3.47 h -5.03 c -6.71,0 -10.87,-0.42 -12.48,-1.26 -1.51,-0.8 -2.26,-1.96 -2.26,-3.47 v -0.3 z m 10.06,-34.76 -4.38,14.64 h 8.75 l -4.38,-14.64 z"
           id="path16" />
      </g>
      <g
         id="g24">
        <path
           class="cls-1"
           d="m 482.11,768.6 v 8.32 c 0,2.78 -1.39,4.16 -4.16,4.16 H 461.3 v 4.16 h 12.49 c 2.77,0 4.16,1.39 4.16,4.16 v 8.32 c 0,2.77 -1.39,4.16 -4.16,4.16 H 461.3 v 4.16 h 16.65 c 2.77,0 4.16,1.39 4.16,4.16 v 8.32 c 0,2.77 -1.39,4.16 -4.16,4.16 h -33.3 c -2.77,0 -4.16,-1.39 -4.16,-4.16 v -49.95 c 0,-2.77 1.39,-4.16 4.16,-4.16 h 33.3 c 2.77,0 4.16,1.39 4.16,4.16 z"
           id="path20" />
        <path
           class="cls-1"
           d="m 490.73,814.18 c -5.69,-5.69 -8.53,-12.56 -8.53,-20.6 0,-8.04 2.84,-14.91 8.53,-20.6 5.69,-5.69 12.56,-8.53 20.6,-8.53 6.91,0 12.95,2.1 18.11,6.29 1.03,0.78 1.54,1.6 1.54,2.46 0,0.64 -0.31,1.32 -0.92,2.04 l -10.07,10.03 c -0.92,1.11 -1.76,1.66 -2.54,1.66 -0.39,0 -0.93,-0.28 -1.62,-0.83 -0.69,-0.55 -2.19,-0.83 -4.5,-0.83 -2.31,0 -4.27,0.81 -5.89,2.43 -1.62,1.62 -2.44,3.59 -2.44,5.89 0,2.3 0.81,4.27 2.44,5.89 1.62,1.62 3.59,2.44 5.89,2.44 1.17,0 2.23,-0.21 3.21,-0.62 0.89,-0.69 1.72,-1.04 2.5,-1.04 0.94,0 1.79,0.56 2.54,1.66 l 10.24,10.28 c 0.72,0.67 1.08,1.33 1.08,2 0,0.78 -0.5,1.54 -1.5,2.29 -5.16,4.16 -11.18,6.24 -18.06,6.24 -8.05,0 -14.92,-2.84 -20.6,-8.53 z"
           id="path22" />
      </g>
      <g
         id="g46">
        <g
           id="g38">
          <path
             class="cls-2"
             d="m 329.51,700.02 v 30.18 c 0,3.35 -1.68,5.03 -5.03,5.03 h -15.09 c -3.35,0 -5.03,-1.68 -5.03,-5.03 v -60.37 c 0,-3.35 1.68,-5.03 5.03,-5.03 h 14.99 c 3.42,0 5.8,1.02 7.14,3.07 l 13.08,19.57 12.88,-19.32 c 1.47,-2.21 3.86,-3.32 7.14,-3.32 h 15.19 c 3.35,0 5.03,1.68 5.03,5.03 v 60.37 c 0,3.35 -1.68,5.03 -5.03,5.03 h -15.09 c -3.35,0 -5.03,-1.68 -5.03,-5.03 v -30.18 c -6.71,11.94 -10.9,18.55 -12.58,19.82 -0.84,0.64 -1.68,0.96 -2.52,0.96 -0.84,0 -1.89,-0.48 -3.14,-1.43 -1.26,-0.96 -5.24,-7.4 -11.95,-19.34 z"
             id="path26" />
          <path
             class="cls-2"
             d="m 443.95,669.84 v 10.06 c 0,3.35 -1.68,5.03 -5.03,5.03 H 418.8 v 5.03 h 15.09 c 3.35,0 5.03,1.68 5.03,5.03 v 10.06 c 0,3.35 -1.68,5.03 -5.03,5.03 H 418.8 v 5.03 h 20.12 c 3.35,0 5.03,1.68 5.03,5.03 v 10.06 c 0,3.35 -1.68,5.03 -5.03,5.03 h -40.24 c -3.35,0 -5.03,-1.68 -5.03,-5.03 v -60.37 c 0,-3.35 1.68,-5.03 5.03,-5.03 h 40.24 c 3.35,0 5.03,1.68 5.03,5.03 z"
             id="path28" />
          <path
             class="cls-2"
             d="m 462.52,699.97 -14.24,-17.05 c -0.97,-1.17 -1.46,-2.3 -1.46,-3.37 0,-1.31 0.7,-2.55 2.11,-3.72 l 11.62,-9.66 c 1.17,-0.97 2.3,-1.46 3.37,-1.46 1.31,0 2.55,0.7 3.72,2.11 l 11.27,13.53 11.27,-13.53 c 1.17,-1.41 2.41,-2.11 3.72,-2.11 1.07,0 2.2,0.49 3.37,1.46 l 11.62,9.66 c 1.41,1.17 2.11,2.41 2.11,3.72 0,1.07 -0.49,2.2 -1.46,3.37 l -14.24,17.05 14.24,17.05 c 0.97,1.17 1.46,2.3 1.46,3.37 0,1.31 -0.7,2.55 -2.11,3.72 l -11.62,9.66 c -1.17,0.97 -2.3,1.46 -3.37,1.46 -1.31,0 -2.55,-0.7 -3.72,-2.11 l -11.27,-13.48 -11.27,13.48 c -1.18,1.41 -2.41,2.11 -3.72,2.11 -1.07,0 -2.2,-0.49 -3.37,-1.46 l -11.62,-9.66 c -1.38,-1.17 -2.06,-2.4 -2.06,-3.67 0,-1.11 0.49,-2.25 1.46,-3.42 z"
             id="path30" />
          <path
             class="cls-2"
             d="m 539.03,669.84 v 60.37 c 0,3.35 -1.68,5.03 -5.03,5.03 h -15.09 c -3.35,0 -5.03,-1.68 -5.03,-5.03 v -60.37 c 0,-3.35 1.68,-5.03 5.03,-5.03 H 534 c 3.35,0 5.03,1.68 5.03,5.03 z"
             id="path32" />
          <path
             class="cls-2"
             d="m 553.07,724.92 c -6.88,-6.87 -10.31,-15.17 -10.31,-24.9 0,-9.73 3.44,-18.03 10.31,-24.9 6.87,-6.87 15.17,-10.31 24.9,-10.31 8.35,0 15.65,2.53 21.88,7.6 1.24,0.94 1.86,1.93 1.86,2.97 0,0.77 -0.37,1.59 -1.11,2.46 l -12.17,12.12 c -1.11,1.34 -2.13,2.01 -3.07,2.01 -0.47,0 -1.12,-0.33 -1.96,-1.01 -0.84,-0.67 -2.65,-1.01 -5.43,-1.01 -2.78,0 -5.16,0.98 -7.12,2.94 -1.96,1.96 -2.94,4.33 -2.94,7.12 0,2.79 0.98,5.16 2.94,7.12 1.96,1.96 4.33,2.94 7.12,2.94 1.41,0 2.7,-0.25 3.87,-0.75 1.07,-0.84 2.08,-1.26 3.02,-1.26 1.14,0 2.16,0.67 3.07,2.01 l 12.37,12.43 c 0.87,0.8 1.31,1.61 1.31,2.41 0,0.94 -0.6,1.86 -1.81,2.77 -6.24,5.03 -13.52,7.55 -21.83,7.55 -9.73,0 -18.03,-3.44 -24.9,-10.31 z"
             id="path34" />
          <path
             class="cls-2"
             d="m 631.89,735.23 c -9.73,0 -18.03,-3.44 -24.9,-10.31 -6.87,-6.87 -10.31,-15.17 -10.31,-24.9 0,-9.73 3.44,-18.03 10.31,-24.9 6.87,-6.87 15.17,-10.31 24.9,-10.31 9.73,0 18.03,3.44 24.9,10.31 6.87,6.88 10.31,15.18 10.31,24.9 0,9.72 -3.44,18.03 -10.31,24.9 -6.87,6.88 -15.18,10.31 -24.9,10.31 z m 0,-45.27 c -2.78,0 -5.16,0.98 -7.12,2.94 -1.96,1.96 -2.94,4.33 -2.94,7.12 0,2.79 0.98,5.16 2.94,7.12 1.96,1.96 4.33,2.94 7.12,2.94 2.79,0 5.16,-0.98 7.12,-2.94 1.96,-1.96 2.94,-4.33 2.94,-7.12 0,-2.79 -0.98,-5.16 -2.94,-7.12 -1.96,-1.96 -4.33,-2.94 -7.12,-2.94 z"
             id="path36" />
        </g>
        <g
           id="g44">
          <path
             class="cls-2"
             d="m 424.58,656.02 c -10.21,4.31 -21.84,2.34 -18.61,0.97 16.05,-6.78 16.43,-13.83 19.66,-15.2 3.23,-1.36 6.32,-1.35 7.69,1.88 2.47,5.85 -5.5,10.98 -8.73,12.35 z"
             id="path40" />
          <path
             class="cls-2"
             d="m 432.4,641.18 c 1.36,-1.55 2.93,-1.49 2.93,-1.49 0,0 -2.21,-1.94 -4.27,0.41 -1.42,1.62 -0.27,3.48 0.61,4.5 -0.14,-1.17 -0.08,-2.49 0.73,-3.42 z"
             id="path42" />
        </g>
      </g>
    </g>
    <g
       id="g138">
      <g
         id="g56">
        <path
           class="cls-1"
           d="m 317.34,120.04 -3.01,0.92 c -1.2,0.39 -2.38,0.84 -3.57,1.26 l -3.56,1.27 -1.78,0.63 c -0.59,0.22 -1.17,0.47 -1.75,0.71 -3.47,-1.37 -7.06,-2.78 -10.7,-4.02 -3.62,-1.19 -7.34,-2.36 -11.14,-3.44 -1.47,3.68 -2.84,7.31 -4.13,10.89 -1.23,3.67 -2.36,7.32 -3.4,10.9 -2.17,1.32 -4.32,2.69 -6.48,4.03 -2.14,1.37 -4.21,2.85 -6.32,4.27 0.59,-2.84 1.23,-5.72 1.92,-8.64 0.73,-2.86 1.53,-5.72 2.38,-8.64 0.83,-2.94 1.8,-5.77 2.8,-8.67 1.01,-2.89 2.05,-5.85 3.24,-8.69 l 6.15,-3.16 c 0.66,-0.31 1.33,-0.62 1.99,-0.93 -21.8,-3.37 -42.22,-0.32 -57.45,11.54 -15.85,12.34 -23.82,32.48 -25.49,55.58 1.61,-2.07 3.25,-4.11 4.93,-6.12 12.23,-2.06 24.28,-3.06 35.97,-3.03 -1.83,1.74 -3.6,3.53 -5.41,5.3 -1.74,1.83 -3.5,3.64 -5.21,5.5 -3.73,0.29 -7.58,0.6 -11.36,1.1 -1.9,0.24 -3.83,0.49 -5.75,0.78 -1.91,0.3 -3.83,0.62 -5.76,0.96 0.48,7.83 1.31,15.45 2.59,22.9 -2.6,3.88 -5.09,7.84 -7.42,11.88 1.8,9.53 4.41,19.12 7.73,28.49 0.13,-0.04 0.26,-0.08 0.39,-0.12 6.93,-1.67 10.66,0.17 17.41,-2.8 0,0 -0.37,-1.98 -0.91,-4.96 -0.55,-3 -1.29,-7.07 -2.14,-11.33 -0.13,-2.27 -0.21,-4.54 -0.24,-6.77 0.15,-2.02 0.91,-4.06 2.26,-5.72 1.42,-0.89 2.85,-1.77 4.27,-2.65 1.42,-0.88 2.91,-1.65 4.35,-2.47 6.8,-0.66 13.32,-0.64 19.92,0.08 0,0 -0.06,-2.97 0.02,-6.89 0.04,-1.96 0.12,-4.16 0.24,-6.34 0.13,-2.17 0.35,-4.26 0.58,-6.1 0.48,-2.2 0.97,-4.39 1.47,-6.59 0.67,-2.53 1.8,-3.79 2.91,-4.54 1.12,-0.75 2.18,-1.03 2.74,-1.71 2.19,-0.21 4.37,-0.41 6.56,-0.59 4.56,0.67 9.3,1.55 12.94,2.37 3.61,0.82 6.07,1.4 6.08,1.4 0,0 0.63,-2.7 1.54,-6.85 0.91,-4.16 2.24,-9.58 3.43,-15.28 0.82,-1.84 1.66,-3.68 2.5,-5.52 1.04,-1.71 2.74,-3.09 4.71,-3.88 2.69,-0.22 5.39,-0.43 8.08,-0.62 4.11,1.85 10.22,4.15 15.14,5.93 4.95,1.8 8.79,3.16 8.79,3.16 0,0 0.25,-0.57 0.67,-1.53 0.42,-0.95 1,-2.31 1.66,-3.9 1.3,-3.19 2.92,-7.33 3.98,-11.17 0.32,-2.07 0.66,-4.18 1.04,-6.23 0.05,-0.33 0.21,-0.7 0.43,-1.1 -6.79,-4.09 -13.78,-7.74 -20.85,-10.88 z m -105.21,75.97 c -0.23,-1.73 -0.41,-3.45 -0.59,-5.21 -0.18,-1.75 -0.36,-3.52 -0.48,-5.27 1.76,-0.27 3.5,-0.53 5.23,-0.77 1.73,-0.25 3.49,-0.43 5.22,-0.62 -3.29,3.83 -6.37,7.83 -9.38,11.88 z m 18.76,-55.43 c 1.06,-0.92 2.12,-1.84 3.23,-2.7 v 0 c 0,0 3.3,-2.64 3.3,-2.64 1.1,-0.88 2.19,-1.76 3.34,-2.59 -0.42,1.78 -0.77,3.61 -1.1,5.42 -0.34,1.81 -0.66,3.6 -0.96,5.38 v 0 c -1.84,-0.09 -3.64,-0.11 -5.47,-0.13 -1.83,-0.01 -3.67,-0.01 -5.53,0 l 3.19,-2.75 z m 23.33,12.21 -4.78,3.82 -0.07,-0.09 c 0,0 0,0 0,0 l 0.07,0.09 -1.19,0.95 -1.16,1 -2.31,1.99 c -11.68,-0.54 -23.77,-0.06 -36.08,1.49 l 1.41,-1.57 1.45,-1.53 2.91,-3.05 c 1.95,-2.02 3.99,-3.96 5.98,-5.94 4.02,-0.2 7.97,-0.33 11.89,-0.34 1.98,0.01 3.94,0.04 5.88,0.09 1.94,0.05 3.84,0.1 5.79,0.23 1.12,-7.61 2.67,-15.34 4.74,-23.07 4.62,-3.23 9.4,-6.24 14.25,-9.12 -4.06,11.79 -6.97,23.51 -8.77,35.04 z m 34.47,-21.43 -6.71,3.45 c 1.1,-3.27 2.28,-6.58 3.55,-9.93 3.41,1.05 6.76,2.17 10.01,3.31 l -6.85,3.16 z"
           id="path50" />
        <path
           class="cls-1"
           d="m 289.75,424.14 c -3.27,-9.56 -5.15,-19.83 -5.35,-29.93 -0.14,-7.49 0.84,-15.03 1.98,-22.41 1.06,-6.88 2.62,-13.68 4.6,-20.35 5,-16.85 12.48,-33.25 22.32,-47.83 5.81,-8.61 12.37,-16.83 19.65,-24.24 7.7,-7.83 16.33,-14.83 25.42,-20.97 10.54,-7.12 21.91,-12.51 33.64,-17.34 11.66,-4.8 23.74,-8.64 36.12,-11.05 22.04,-4.29 44.92,-4.7 66.71,1.26 7.16,1.96 14.13,4.61 20.77,7.9 20.99,-30.57 31.05,-57.08 16.85,-70.77 -21.08,-20.33 -138.41,14.98 -198.74,63.43 -106.12,85.22 -119.5,173.59 -101.82,206.33 8,14.83 31.73,14.06 63.62,0.06 -2.22,-4.57 -4.14,-9.29 -5.78,-14.08 z"
           id="path52" />
        <path
           class="cls-1"
           d="m 315.46,466.32 c -2.25,-2.21 -4.35,-4.58 -6.35,-7.03 -5.29,2.6 -10.73,5.04 -16.38,7.24 -1.44,0.56 -2.87,1.12 -4.35,1.62 l -2.2,0.78 c -0.74,0.26 -1.52,0.5 -2.27,0.75 l -2.3,0.74 -2.69,0.78 c -1.79,0.52 -3.6,0.97 -5.41,1.4 -7.24,1.73 -14.63,2.66 -21.96,2.65 -3.66,-0.05 -7.3,-0.34 -10.88,-0.93 -3.58,-0.6 -7.08,-1.54 -10.47,-2.8 -6.77,-2.52 -13,-6.53 -17.98,-11.78 -5.01,-5.22 -8.75,-11.57 -11.29,-18.36 -1.28,-3.4 -2.27,-6.92 -3.02,-10.5 -0.74,-3.59 -1.21,-7.25 -1.49,-10.93 -0.28,-3.69 -0.31,-7.41 -0.2,-11.13 0.08,-1.86 0.17,-3.72 0.34,-5.58 l 0.12,-1.39 0.06,-0.7 0.07,-0.63 0.28,-2.48 c 0.09,-0.85 0.21,-1.59 0.32,-2.38 0.11,-0.78 0.21,-1.57 0.34,-2.34 0.26,-1.54 0.5,-3.1 0.8,-4.62 l 0.44,-2.29 0.49,-2.27 c 0.31,-1.52 0.69,-3.01 1.04,-4.51 2.94,-11.95 6.97,-23.33 11.67,-34.31 4.71,-10.98 10.12,-21.53 16.07,-31.73 5.96,-10.19 12.44,-20.02 19.4,-29.48 6.97,-9.45 14.38,-18.56 22.23,-27.26 7.85,-8.71 16.11,-17.04 24.77,-24.94 4.32,-3.96 8.75,-7.81 13.28,-11.54 4.53,-3.73 9.13,-7.38 13.84,-10.87 4.71,-3.5 9.5,-6.91 14.39,-10.17 4.89,-3.26 9.86,-6.41 14.91,-9.42 5.06,-3 10.19,-5.88 15.4,-8.63 5.22,-2.73 10.5,-5.33 15.85,-7.8 10.38,-4.76 20.89,-9.32 31.56,-13.6 10.68,-4.27 21.53,-8.27 32.63,-11.84 5.55,-1.78 11.17,-3.45 16.88,-4.97 2.85,-0.77 5.73,-1.48 8.63,-2.17 2.73,-0.63 6.21,-1.42 9.94,-2.11 14.62,-2.76 29.57,-4 43.39,-1.84 3.45,0.54 6.83,1.3 10.11,2.3 3.28,1.01 6.47,2.25 9.49,3.85 3.03,1.58 5.9,3.48 8.5,5.76 1.3,1.14 2.53,2.35 3.66,3.67 0.58,0.65 1.1,1.34 1.64,2.02 0.5,0.71 1.02,1.41 1.47,2.15 1.89,2.92 3.29,6.11 4.31,9.39 0.98,3.29 1.62,6.66 1.87,10.07 0.53,6.81 -0.16,13.71 -1.68,20.59 -0.76,3.44 -1.74,6.88 -2.88,10.3 -1.15,3.42 -2.49,6.82 -3.94,10.19 -2.92,6.74 -6.42,13.34 -10.2,19.76 l -1.29,2.14 c -0.42,0.7 -0.86,1.43 -1.24,2.03 -0.79,1.26 -1.57,2.53 -2.38,3.77 -1.6,2.51 -3.24,4.96 -4.89,7.39 -0.2,0.3 -0.41,0.59 -0.61,0.89 1.64,1.36 3.25,2.76 4.82,4.22 1.86,1.75 3.64,3.58 5.33,5.48 2.31,-3.63 4.51,-7.23 6.58,-10.79 22.91,-39.53 30.19,-73.55 21.07,-98.37 -8.85,-24.06 -32.85,-37.31 -67.59,-37.31 -37.13,0 -84.68,14.8 -137.5,42.79 -62.8,33.29 -116.92,84.29 -152.36,143.62 -31.47,52.67 -44.74,106.32 -35.49,143.52 7.34,29.52 28.37,45.77 59.24,45.77 21.62,0 47.57,-7.8 77.1,-22.98 -1.04,-0.92 -2.05,-1.86 -3.04,-2.83 z"
           id="path54" />
      </g>
      <g
         id="g64">
        <path
           class="cls-1"
           d="m 713.03,371.11 c 0,0 -24.9,-13.37 -43.28,5.42 -21.31,21.78 -25.43,33.64 -43.32,38.51 -17.88,4.87 -47.11,-1.03 -58.9,5.02 0,0 18.94,6.34 33.22,11.67 14.28,5.34 34.92,22.47 60.69,-4.71 0,0 -10.84,1.79 -18.32,1.17 0,0 19.95,1.27 30.13,-32.11 5.06,-16.61 18.88,-21.43 39.78,-24.98 z"
           id="path58" />
        <path
           class="cls-1"
           d="m 649.43,381.37 c 12.79,-26.01 43.05,-42.88 43.05,-42.88 -44.8,-1.34 -66.03,30.34 -71,45.91 -2.93,-4.76 0.79,-17.62 0.79,-17.62 -15.9,29.12 -33.16,44.06 -33.16,44.06 9.49,-4.46 44.77,2.14 60.32,-29.46 z"
           id="path60" />
        <path
           class="cls-1"
           d="m 592.4,384.42 c 16.39,-35.94 32.99,-33.16 32.99,-33.16 -36,0.65 -52.58,21.32 -55.47,35.89 -1.03,-5.81 -5.19,-12.04 -5.19,-12.04 2.75,13.45 -21,51.53 -21,51.53 7.67,-3.49 34.92,-12.05 48.68,-42.23 z"
           id="path62" />
      </g>
      <g
         id="g136">
        <path
           class="cls-2"
           d="m 232.56,268.56 c -1.62,3.74 -5.73,5.27 -9.25,3.42 -3.51,-1.84 -5,-6.64 -3.24,-10.72 1.87,-4 6.28,-5.41 9.64,-3.25 3.39,2.18 4.57,6.86 2.84,10.54 z m 22.47,-37.39 c -2.48,3.22 -6.99,3.77 -10.13,1.2 -3.13,-2.57 -3.57,-7.48 -0.91,-10.93 2.7,-3.41 7.46,-3.77 10.4,-0.99 2.98,2.81 3.16,7.53 0.63,10.72 z m 26.43,-25.95 c -2.99,2.73 -7.62,2.54 -10.38,-0.47 -2.75,-3.01 -2.44,-7.84 0.74,-10.73 3.27,-2.8 8.06,-2.43 10.62,0.73 2.57,3.17 2.11,7.84 -0.98,10.47 z m 34.76,-25.15 c -1.76,1.04 -3.81,1.28 -5.69,0.88 -1.87,-0.39 -3.61,-1.46 -4.74,-3.15 -1.14,-1.69 -1.45,-3.69 -1.01,-5.56 0.44,-1.86 1.67,-3.53 3.52,-4.62 3.7,-2.17 8.43,-1.06 10.52,2.43 2.09,3.5 0.91,7.96 -2.59,10.02 z m 40.17,-19.15 c -3.83,1.44 -8.37,-0.28 -10.14,-3.92 -1.78,-3.64 0.05,-7.88 4.09,-9.4 4.02,-1.57 8.64,0.4 10.21,4.11 1.56,3.71 -0.33,7.73 -4.15,9.22 z"
           id="path66" />
        <g
           id="g108">
          <path
             class="cls-2"
             d="m 360,206.32 c 4.7,-2.79 9.47,-5.46 14.3,-8.02 -7.34,-2.21 -14.87,-4.16 -22.57,-5.86 -2.18,7.58 -4.04,15.14 -5.6,22.64 4.55,-3.03 9.17,-5.96 13.87,-8.77 z"
             id="path68" />
          <path
             class="cls-2"
             d="m 240.84,453.27 c -2.6,-0.85 -5.1,-2 -7.41,-3.46 -2.31,-1.46 -4.43,-3.23 -6.28,-5.24 -3.72,-4.02 -6.32,-8.98 -7.96,-14.19 -3.11,7.84 -4.4,16.87 -3.22,25.86 8.59,1.25 17.24,0.17 24.87,-2.98 z"
             id="path70" />
          <path
             class="cls-2"
             d="m 389.02,191.06 c 4.97,-2.28 9.96,-4.5 14.98,-6.67 -7.15,-2.78 -14.4,-5.44 -21.72,-8.01 -2.99,7.31 -5.64,14.63 -7.98,21.93 4.85,-2.53 9.76,-4.95 14.72,-7.25 z"
             id="path72" />
          <path
             class="cls-2"
             d="m 549.97,158.38 c -2.12,-0.4 -4.29,-0.63 -6.49,-0.71 -4.38,-0.17 -8.85,0.31 -13.22,1.35 2.53,1.02 4.96,2.33 7.12,4.02 0.28,0.2 0.54,0.42 0.8,0.65 0.26,0.22 0.52,0.44 0.77,0.67 0.49,0.48 0.99,0.94 1.44,1.46 0.47,0.49 0.88,1.04 1.32,1.57 0.39,0.56 0.81,1.1 1.15,1.7 1.46,2.32 2.43,4.91 3.04,7.57 0.58,2.67 0.82,5.41 0.74,8.14 2.68,-3.7 4.87,-7.7 6.52,-11.9 1.62,-4.18 2.66,-8.56 3.04,-12.93 -1,-0.35 -2.05,-0.63 -3.07,-0.91 -1.06,-0.25 -2.09,-0.5 -3.16,-0.69 z"
             id="path74" />
          <path
             class="cls-2"
             d="m 273.22,452.86 c -5.3,1.34 -10.73,2.19 -16.2,2.44 -2.73,0.08 -5.47,0 -8.19,-0.3 -2.72,-0.31 -5.4,-0.89 -8,-1.74 1.38,3.26 3.21,6.45 5.47,9.49 2.27,3.02 4.96,5.93 8.1,8.66 8.04,-5.37 14.4,-11.9 18.8,-18.56 z"
             id="path76" />
          <path
             class="cls-2"
             d="m 288.82,447.84 c -5.09,1.98 -10.29,3.7 -15.6,5.02 1.55,0.99 3.21,1.97 4.96,2.85 0.88,0.45 1.78,0.89 2.71,1.32 l 2.68,1.26 c 0.9,0.41 1.83,0.83 2.74,1.23 l 2.75,1.17 c 1.86,0.78 3.72,1.5 5.61,2.21 3.66,-7.2 6.62,-14.45 9.14,-21.7 -4.91,2.42 -9.9,4.66 -15,6.64 z"
             id="path78" />
          <path
             class="cls-2"
             d="m 419.14,178.08 c 5.08,-2.03 10.18,-3.99 15.31,-5.86 -6.98,-3.19 -14.1,-6.23 -21.32,-9.14 -3.22,7.09 -6.25,14.2 -9.14,21.31 5.02,-2.17 10.07,-4.28 15.15,-6.31 z"
             id="path80" />
          <path
             class="cls-2"
             d="m 307.46,245.44 c 4.03,-3.69 8.16,-7.28 12.38,-10.75 -7.65,-0.67 -15.41,-1.07 -23.27,-1.18 -0.6,7.85 -0.92,15.6 -0.95,23.28 3.85,-3.88 7.81,-7.66 11.85,-11.35 z"
             id="path82" />
          <path
             class="cls-2"
             d="m 245.6,321.51 c 2.76,-4.72 5.64,-9.36 8.65,-13.93 -7.5,1.6 -15.04,3.52 -22.6,5.78 1.74,7.7 3.77,15.23 6.09,22.54 2.48,-4.88 5.1,-9.68 7.86,-14.4 z"
             id="path84" />
          <path
             class="cls-2"
             d="m 230.78,350.75 c 2.16,-5.02 4.48,-9.97 6.96,-14.85 -7.28,2.43 -14.55,5.24 -21.8,8.48 2.65,7.49 5.61,14.75 8.93,21.67 1.78,-5.17 3.76,-10.27 5.92,-15.3 z"
             id="path86" />
          <path
             class="cls-2"
             d="m 263.63,294.12 c 3.24,-4.4 6.59,-8.72 10.05,-12.96 -7.63,0.83 -15.32,1.96 -23.06,3.38 0.93,7.81 2.15,15.51 3.64,23.04 3.01,-4.57 6.13,-9.06 9.38,-13.46 z"
             id="path88" />
          <path
             class="cls-2"
             d="m 209.63,425.23 c 3.15,2.16 6.35,3.88 9.55,5.16 -0.83,-2.61 -1.45,-5.28 -1.89,-7.97 -0.43,-2.7 -0.68,-5.43 -0.82,-8.16 -0.13,-2.73 -0.09,-5.47 0.02,-8.2 0.14,-2.73 0.37,-5.45 0.71,-8.17 -1.49,1.2 -3,2.43 -4.46,3.84 -1.49,1.39 -2.91,2.91 -4.34,4.53 -2.81,3.25 -5.51,6.96 -7.9,11.08 2.94,3.09 5.99,5.71 9.12,7.88 z"
             id="path90" />
          <path
             class="cls-2"
             d="m 220.22,381.77 c 1.29,-5.31 2.88,-10.55 4.65,-15.72 -6.86,3.43 -13.68,7.32 -20.34,11.88 3.81,7.13 8,13.87 12.68,19.96 0.67,-5.43 1.72,-10.81 3.01,-16.12 z"
             id="path92" />
          <path
             class="cls-2"
             d="m 332.74,224.55 c 4.39,-3.26 8.84,-6.43 13.39,-9.46 -7.54,-1.44 -15.22,-2.59 -23.04,-3.49 -1.4,7.74 -2.46,15.46 -3.25,23.09 4.22,-3.48 8.51,-6.88 12.9,-10.13 z"
             id="path94" />
          <path
             class="cls-2"
             d="m 449.98,166.89 c 5.21,-1.67 10.45,-3.22 15.73,-4.63 -6.67,-3.79 -13.59,-7.36 -20.66,-10.75 -3.78,6.87 -7.29,13.78 -10.58,20.71 5.14,-1.87 10.31,-3.66 15.52,-5.33 z"
             id="path96" />
          <path
             class="cls-2"
             d="m 514.28,155.71 c 2.73,0.18 5.45,0.5 8.13,1.03 2.68,0.53 5.33,1.25 7.86,2.28 -0.7,-3.09 -1.72,-6.13 -3.06,-9.19 -1.35,-3.06 -3.02,-6.12 -5.08,-9.16 -9.38,3.96 -17.7,9.45 -24.23,15.43 5.44,-0.53 10.93,-0.74 16.38,-0.39 z"
             id="path98" />
          <path
             class="cls-2"
             d="m 546.64,184.8 c -0.14,5.47 -1.29,10.88 -2.91,16.09 -1.62,5.22 -3.72,10.29 -6.07,15.22 3.89,-1.96 7.85,-4.36 11.73,-7.21 3.87,-2.84 7.66,-6.12 11.22,-9.77 -4.15,-6.14 -8.92,-10.79 -13.97,-14.33 z"
             id="path100" />
          <path
             class="cls-2"
             d="m 529.88,230.55 c -2.8,4.7 -5.76,9.29 -8.84,13.81 3.76,-0.74 7.54,-1.55 11.32,-2.48 1.9,-0.45 3.79,-0.94 5.69,-1.45 0.94,-0.23 1.93,-0.57 2.91,-0.89 l 1.48,-0.51 0.75,-0.26 c 0.25,-0.09 0.5,-0.17 0.76,-0.29 -0.99,-8.93 -3.22,-16.42 -6.3,-22.36 -2.36,4.94 -4.99,9.73 -7.78,14.44 z"
             id="path102" />
          <path
             class="cls-2"
             d="m 284.35,268.71 c 3.66,-4.06 7.42,-8.03 11.26,-11.91 -7.67,0.09 -15.43,0.45 -23.27,1.1 0.16,7.86 0.61,15.63 1.33,23.27 3.46,-4.24 7.01,-8.4 10.68,-12.46 z"
             id="path104" />
          <path
             class="cls-2"
             d="m 475.27,147.48 -0.99,1.25 c -0.31,0.41 -0.56,0.82 -0.84,1.23 l -1.62,2.44 c -2.13,3.27 -4.17,6.55 -6.11,9.87 5.28,-1.42 10.61,-2.67 15.97,-3.73 2.68,-0.53 5.37,-1.01 8.08,-1.41 2.7,-0.41 5.41,-0.76 8.13,-1.02 -2.17,-2.47 -4.76,-4.88 -7.79,-7.17 -3.03,-2.3 -6.5,-4.47 -10.41,-6.47 -0.81,0.84 -1.6,1.68 -2.35,2.51 -0.73,0.83 -1.41,1.67 -2.08,2.5 z"
             id="path106" />
        </g>
        <path
           class="cls-2"
           d="m 479.78,478.61 c 0.66,-1.75 1.47,-11.05 17.43,-6 2.83,-7.04 9.36,-18.63 15.77,-9.92 0,0 11.98,-22.96 17.7,-10.56 0,0 5.81,-11.72 11.54,-8.08 5.73,3.63 3.26,13.15 3.26,13.15 0,0 7.23,11.77 7.35,16.35 0.86,32.49 -53.15,62.17 -97.85,30.4 -25.88,-6.25 -55.17,-23.55 -19.99,-38.92 22.89,-10 41.15,23.32 44.79,13.58 z"
           id="path110" />
        <path
           class="cls-2"
           d="m 532.58,271.25 c -26.3,-25.93 -77.57,-43.17 -144.73,-12.47 -67.4,30.81 -87.77,97.04 -88.71,132.37 -0.83,31.6 21.2,73.53 55.59,81.1 36.58,8.05 89.69,-33.09 89.69,-33.09 4.38,7.23 15.2,18.3 22.99,13.53 7.78,-4.77 7.08,-16.11 2.86,-25.62 8.42,8.44 15.95,13.64 23.76,8.09 8.16,-5.8 2.97,-17.1 -2.37,-26.59 5.75,7.93 16.64,17.73 23.29,12.54 7.7,-6.02 2.13,-17.07 -3.74,-25.47 6.88,8.03 16.11,17.39 24.69,9.75 8.12,-7.22 1.26,-21.5 4.09,-28.75 11.11,-28.47 35.02,-63.55 -7.41,-105.39 z m 2.07,36.14 c 2,0.1 3.55,1.8 3.45,3.8 -0.1,2 -1.8,3.55 -3.8,3.45 -2,-0.1 -3.55,-1.8 -3.45,-3.8 0.1,-2 1.8,-3.55 3.8,-3.45 z m -12.13,-17.75 c 2.67,0.13 4.73,2.4 4.61,5.07 -0.13,2.67 -2.4,4.73 -5.07,4.61 -2.67,-0.13 -4.73,-2.4 -4.6,-5.07 0.13,-2.67 2.4,-4.73 5.07,-4.6 z m -12.38,-4.72 c -0.16,3.34 -3,5.92 -6.34,5.76 -3.34,-0.16 -5.92,-3 -5.76,-6.34 0.16,-3.34 3,-5.92 6.34,-5.76 3.34,0.16 5.92,3 5.76,6.34 z m -75.89,-33.47 c 30.47,-7.7 55.55,-1.58 72.48,10.68 1.37,6.59 -5.87,10.86 -19.66,0.84 8.1,13.84 -9.79,28.36 -15.92,3.28 -8.91,21.39 -25.83,10.75 -19.25,-7.33 -14.59,8.34 -25.82,1.57 -17.65,-7.47 z m -59.23,28.58 c 1.96,-2.32 4.85,-3.99 6.42,-4.69 4.99,-2.25 27.26,6.89 31.52,6.83 4.26,-0.06 11.55,-0.53 11.47,3.7 -0.08,4.24 -3.6,7.72 -7.86,7.78 -2.87,0.04 -18.14,-5.59 -27.82,-10.57 8.2,5.53 17.76,13.35 19.51,15.09 2.96,2.95 2.87,7.81 -0.2,10.85 -3.07,3.04 -7.96,3.11 -10.92,0.16 -1.74,-1.74 -9.57,-11.26 -15.09,-19.42 4.97,9.64 10.56,24.82 10.51,27.67 -0.08,4.24 -3.6,7.72 -7.86,7.78 -4.26,0.06 -3.76,-7.18 -3.68,-11.42 0.08,-4.24 -9.19,-29.99 -5.98,-33.77 z m -47.84,134.44 c 3.94,6.63 0.74,17.24 -5.28,16.68 -7.87,-12.27 -12.12,-26.76 -11.76,-40.35 0.33,-12.51 3.77,-28.39 11.23,-45.14 7.66,-4.09 15.03,7.58 6.82,19.53 15.04,-2.43 23.93,15.89 4.02,24.27 23.61,4.02 17.58,33.16 -5.03,25.01 z m 29.28,16.04 c -2.31,2.41 -6.15,2.5 -8.56,0.18 -2.42,-2.31 -2.5,-6.15 -0.18,-8.56 2.31,-2.41 6.15,-2.5 8.56,-0.18 2.42,2.31 2.5,6.15 0.18,8.56 z m 13.71,12.81 c -1.85,1.93 -4.92,2 -6.85,0.15 -1.93,-1.85 -2,-4.92 -0.15,-6.85 1.85,-1.93 4.92,-2 6.85,-0.15 1.93,1.85 2,4.92 0.15,6.85 z m 25.21,6.84 c -1.85,1.93 -4.92,2 -6.85,0.15 -1.93,-1.85 -2,-4.92 -0.15,-6.85 1.85,-1.93 4.92,-2 6.85,-0.15 1.93,1.85 2,4.92 0.15,6.85 z m 48.05,-75.39 c 9.62,49.78 -66.4,70.08 -77.7,9.66 -11.15,-59.59 67.47,-62.64 77.7,-9.66 z m 53.56,19.14 c -3.69,4.46 -15.31,-1.82 -23.4,3.38 -6.48,4.17 -9.39,16.69 -16.73,15.42 -7.34,-1.27 -1.2,-35.44 6.46,-39.14 7.65,-3.7 37.36,15.89 33.67,20.34 z m 1.82,-92.33 c 46.67,25.14 21.05,79.51 -25.4,65.52 -46.03,-13.86 -29.25,-94.96 25.4,-65.52 z"
           id="path112" />
        <g
           id="g134">
          <path
             class="cls-2"
             d="m 619.41,267.35 c -0.69,-1.37 -1.89,-2.38 -3.28,-2.78 -1.3,-0.37 -2.64,-0.19 -3.78,0.51 -1.9,1.16 -2.82,3.6 -2.24,5.92 0.11,0.42 0.26,0.83 0.45,1.22 l 10.78,21.4 c 0.69,1.37 1.89,2.38 3.28,2.78 0.43,0.12 0.88,0.19 1.32,0.19 0.38,0 0.76,-0.05 1.13,-0.14 0.46,-0.12 0.91,-0.3 1.33,-0.56 2.3,-1.41 3.09,-4.55 1.79,-7.14 z"
             id="path114" />
          <path
             class="cls-2"
             d="m 651.61,261.59 c -0.33,-1.46 -1.22,-2.74 -2.45,-3.51 -1.13,-0.71 -2.45,-0.93 -3.76,-0.63 -1.22,0.3 -2.27,1.08 -2.95,2.18 -0.76,1.23 -0.99,2.77 -0.64,4.24 l 4.82,20.17 c 0.62,2.48 2.76,4.18 5.08,4.18 0.36,0 0.73,-0.04 1.09,-0.13 h 0.02 c 1.22,-0.31 2.27,-1.08 2.95,-2.19 0.76,-1.23 0.99,-2.77 0.64,-4.24 l -4.8,-20.08 z m 1.01,25.67 v 0 c 0,0 0,0 0,0 z"
             id="path116" />
          <path
             class="cls-2"
             d="m 681.73,256.04 c -1.32,-0.23 -2.63,0.1 -3.69,0.92 -1.15,0.88 -1.89,2.27 -2.04,3.79 l -1.86,20.14 c -0.04,0.4 -0.04,0.8 0.01,1.2 0.27,2.43 2.04,4.4 4.28,4.78 0.27,0.05 0.54,0.07 0.81,0.07 0.18,0 0.35,-0.01 0.52,-0.03 v 0 c 0.85,-0.1 1.67,-0.43 2.36,-0.96 1.15,-0.88 1.89,-2.26 2.03,-3.79 l 1.86,-20.15 c 0.27,-2.9 -1.62,-5.52 -4.29,-5.98 z"
             id="path118" />
          <path
             class="cls-2"
             d="m 714.79,262.34 c -1.26,-0.59 -2.65,-0.61 -3.91,-0.06 -1.33,0.58 -2.36,1.74 -2.82,3.2 l -6.78,21.11 c -0.22,0.69 -0.31,1.41 -0.27,2.14 0.13,2.05 1.29,3.83 3.04,4.65 0.64,0.3 1.34,0.46 2.03,0.46 0.09,0 0.19,0 0.28,0 0.55,-0.03 1.08,-0.16 1.6,-0.39 1.33,-0.58 2.36,-1.74 2.82,-3.2 l 6.78,-21.11 c 0.86,-2.67 -0.36,-5.66 -2.77,-6.79 z"
             id="path120" />
          <path
             class="cls-2"
             d="m 745.99,277.91 c -1.09,-0.99 -2.51,-1.45 -3.91,-1.27 -1.41,0.18 -2.67,0.99 -3.47,2.23 l -12.41,19.17 c -0.7,1.07 -1,2.39 -0.85,3.71 0.16,1.38 0.79,2.64 1.77,3.54 0.93,0.85 2.11,1.31 3.31,1.31 0.17,0 0.35,0 0.52,-0.03 h 0.07 c 1.4,-0.19 2.67,-1 3.47,-2.24 l 12.41,-19.18 c 1.46,-2.26 1.05,-5.44 -0.92,-7.25 z"
             id="path122" />
          <path
             class="cls-2"
             d="m 752.48,325.68 c 0.2,0.03 0.4,0.04 0.6,0.04 h 0.07 c 1.16,-0.02 2.29,-0.47 3.17,-1.27 l 15.92,-14.41 c 1.98,-1.79 2.36,-4.98 0.87,-7.26 -0.82,-1.26 -2.1,-2.09 -3.52,-2.27 -1.38,-0.17 -2.78,0.27 -3.84,1.23 l -15.92,14.41 c -1.16,1.05 -1.81,2.59 -1.79,4.23 0.02,1.09 0.33,2.14 0.91,3.03 0.82,1.26 2.1,2.09 3.52,2.27 z"
             id="path124" />
          <path
             class="cls-2"
             d="m 792.15,341.93 c -0.19,-1.52 -0.97,-2.88 -2.16,-3.72 -1.1,-0.78 -2.44,-1.06 -3.75,-0.78 l -21.46,4.63 c -2.16,0.46 -3.8,2.35 -4.08,4.69 -0.06,0.48 -0.06,0.96 0,1.42 0.19,1.52 0.97,2.88 2.16,3.72 0.65,0.46 1.4,0.76 2.17,0.85 v 0 c 0.19,0.02 0.38,0.04 0.56,0.04 0.34,0 0.67,-0.04 1.01,-0.11 l 21.46,-4.63 c 2.64,-0.57 4.43,-3.26 4.08,-6.12 z"
             id="path126" />
          <path
             class="cls-2"
             d="m 785.32,371.61 -14.68,0.07 c -1.3,0 -2.52,0.54 -3.43,1.49 -1,1.04 -1.55,2.51 -1.5,4.03 0,0.16 0.02,0.31 0.03,0.46 0.31,2.77 2.49,4.85 5.08,4.85 h 0.02 l 14.68,-0.07 c 0.17,0 0.34,-0.01 0.51,-0.03 1.12,-0.13 2.13,-0.63 2.93,-1.46 1,-1.04 1.55,-2.52 1.49,-4.03 -0.1,-2.94 -2.43,-5.33 -5.13,-5.31 z"
             id="path128" />
          <path
             class="cls-2"
             d="m 782.06,411.5 -15.19,-7.8 c -1.24,-0.64 -2.68,-0.71 -3.95,-0.2 -1.34,0.54 -2.39,1.67 -2.89,3.11 -0.27,0.8 -0.37,1.67 -0.27,2.52 0.21,1.89 1.29,3.5 2.88,4.32 l 15.19,7.8 c 0.69,0.35 1.44,0.53 2.19,0.53 0.18,0 0.35,-0.01 0.53,-0.03 0.42,-0.05 0.83,-0.15 1.23,-0.31 1.34,-0.54 2.39,-1.67 2.88,-3.11 0.9,-2.62 -0.24,-5.63 -2.61,-6.84 z"
             id="path130" />
          <path
             class="cls-2"
             d="m 768.97,443 -17.13,-13.14 c -1.14,-0.88 -2.59,-1.21 -3.95,-0.92 -1.4,0.3 -2.6,1.23 -3.3,2.54 -0.54,1.01 -0.76,2.16 -0.62,3.33 0.17,1.54 0.94,2.93 2.12,3.83 l 17.13,13.14 c 0.87,0.67 1.91,1.02 2.96,1.02 0.18,0 0.35,-0.01 0.53,-0.03 0.15,-0.02 0.31,-0.04 0.46,-0.08 1.39,-0.3 2.6,-1.23 3.3,-2.54 1.28,-2.39 0.62,-5.53 -1.49,-7.16 z"
             id="path132" />
        </g>
      </g>
    </g>
  </g>
</svg>
