<?xml version="1.0" encoding="UTF-8"?>
<svg id="Capa_1" data-name="Capa 1" xmlns="http://www.w3.org/2000/svg" viewBox="0 0 916.8 916.8">
  <defs>
    <style>
      .cls-1 {
        fill: #fabd00;
      }

      .cls-2 {
        fill: #fff;
      }

      .cls-3 {
        fill: #4f2582;
      }
    </style>
  </defs>
  <rect class="cls-3" y=".49" width="916.8" height="916.8"/>
  <circle class="cls-3" cx="459.85" cy="456.46" r="456.95"/>
  <g>
    <g>
      <path class="cls-1" d="M417.22,568.64c1.61-.84,5.77-1.26,12.48-1.26h5.03c3.52,.1,5.28,1.26,5.28,3.47,0,.47-.08,.99-.25,1.56l-19.06,61.67c-.7,2.48-4.41,3.72-11.12,3.72h-10.06c-6.71,0-10.41-1.24-11.12-3.72l-19.07-61.67c-.17-.57-.25-1.09-.25-1.56,0-2.21,1.76-3.37,5.28-3.47h5.03c6.71,0,10.9,.42,12.58,1.26,1.68,.84,4.41,8.8,8.2,23.89l4.38,14.64,4.38-14.64c3.92-15.09,6.69-23.06,8.3-23.89Z"/>
      <path class="cls-1" d="M466.87,572.42v60.37c0,3.35-1.68,5.03-5.03,5.03h-15.09c-3.35,0-5.03-1.68-5.03-5.03v-60.37c0-3.35,1.68-5.03,5.03-5.03h15.09c3.35,0,5.03,1.68,5.03,5.03Z"/>
      <path class="cls-1" d="M516.67,568.64c1.61-.84,5.77-1.26,12.48-1.26h5.03c3.52,.1,5.28,1.26,5.28,3.47,0,.47-.08,.99-.25,1.56l-19.07,61.67c-.7,2.48-4.41,3.72-11.12,3.72h-10.06c-6.71,0-10.41-1.24-11.12-3.72l-19.06-61.67c-.17-.57-.25-1.09-.25-1.56,0-2.21,1.76-3.37,5.28-3.47h5.03c6.71,0,10.9,.42,12.58,1.26,1.68,.84,4.41,8.8,8.2,23.89l4.38,14.64,4.38-14.64c3.92-15.09,6.69-23.06,8.3-23.89Z"/>
      <path class="cls-1" d="M556.86,632.78c0,1.68-.84,2.94-2.52,3.77-1.68,.84-5.87,1.26-12.58,1.26h-5.03c-3.52-.1-5.28-1.26-5.28-3.47,0-.47,.08-.99,.25-1.56l19.07-61.67c.7-2.48,4.41-3.72,11.12-3.72h10.06c6.71,0,10.41,1.24,11.12,3.72l19.06,61.67c.17,.57,.25,1.09,.25,1.56,0,2.21-1.76,3.37-5.28,3.47h-5.03c-6.71,0-10.87-.42-12.48-1.26-1.51-.8-2.26-1.96-2.26-3.47v-.3h-20.47Zm10.06-34.76l-4.38,14.64h8.75l-4.38-14.64Z"/>
    </g>
    <g>
      <path class="cls-1" d="M482.11,768.6v8.32c0,2.78-1.39,4.16-4.16,4.16h-16.65v4.16h12.49c2.77,0,4.16,1.39,4.16,4.16v8.32c0,2.77-1.39,4.16-4.16,4.16h-12.49v4.16h16.65c2.77,0,4.16,1.39,4.16,4.16v8.32c0,2.77-1.39,4.16-4.16,4.16h-33.3c-2.77,0-4.16-1.39-4.16-4.16v-49.95c0-2.77,1.39-4.16,4.16-4.16h33.3c2.77,0,4.16,1.39,4.16,4.16Z"/>
      <path class="cls-1" d="M490.73,814.18c-5.69-5.69-8.53-12.56-8.53-20.6s2.84-14.91,8.53-20.6c5.69-5.69,12.56-8.53,20.6-8.53,6.91,0,12.95,2.1,18.11,6.29,1.03,.78,1.54,1.6,1.54,2.46,0,.64-.31,1.32-.92,2.04l-10.07,10.03c-.92,1.11-1.76,1.66-2.54,1.66-.39,0-.93-.28-1.62-.83-.69-.55-2.19-.83-4.5-.83s-4.27,.81-5.89,2.43c-1.62,1.62-2.44,3.59-2.44,5.89s.81,4.27,2.44,5.89c1.62,1.62,3.59,2.44,5.89,2.44,1.17,0,2.23-.21,3.21-.62,.89-.69,1.72-1.04,2.5-1.04,.94,0,1.79,.56,2.54,1.66l10.24,10.28c.72,.67,1.08,1.33,1.08,2,0,.78-.5,1.54-1.5,2.29-5.16,4.16-11.18,6.24-18.06,6.24-8.05,0-14.92-2.84-20.6-8.53Z"/>
    </g>
    <g>
      <g>
        <path class="cls-2" d="M329.51,700.02v30.18c0,3.35-1.68,5.03-5.03,5.03h-15.09c-3.35,0-5.03-1.68-5.03-5.03v-60.37c0-3.35,1.68-5.03,5.03-5.03h14.99c3.42,0,5.8,1.02,7.14,3.07l13.08,19.57,12.88-19.32c1.47-2.21,3.86-3.32,7.14-3.32h15.19c3.35,0,5.03,1.68,5.03,5.03v60.37c0,3.35-1.68,5.03-5.03,5.03h-15.09c-3.35,0-5.03-1.68-5.03-5.03v-30.18c-6.71,11.94-10.9,18.55-12.58,19.82-.84,.64-1.68,.96-2.52,.96s-1.89-.48-3.14-1.43c-1.26-.96-5.24-7.4-11.95-19.34Z"/>
        <path class="cls-2" d="M443.95,669.84v10.06c0,3.35-1.68,5.03-5.03,5.03h-20.12v5.03h15.09c3.35,0,5.03,1.68,5.03,5.03v10.06c0,3.35-1.68,5.03-5.03,5.03h-15.09v5.03h20.12c3.35,0,5.03,1.68,5.03,5.03v10.06c0,3.35-1.68,5.03-5.03,5.03h-40.24c-3.35,0-5.03-1.68-5.03-5.03v-60.37c0-3.35,1.68-5.03,5.03-5.03h40.24c3.35,0,5.03,1.68,5.03,5.03Z"/>
        <path class="cls-2" d="M462.52,699.97l-14.24-17.05c-.97-1.17-1.46-2.3-1.46-3.37,0-1.31,.7-2.55,2.11-3.72l11.62-9.66c1.17-.97,2.3-1.46,3.37-1.46,1.31,0,2.55,.7,3.72,2.11l11.27,13.53,11.27-13.53c1.17-1.41,2.41-2.11,3.72-2.11,1.07,0,2.2,.49,3.37,1.46l11.62,9.66c1.41,1.17,2.11,2.41,2.11,3.72,0,1.07-.49,2.2-1.46,3.37l-14.24,17.05,14.24,17.05c.97,1.17,1.46,2.3,1.46,3.37,0,1.31-.7,2.55-2.11,3.72l-11.62,9.66c-1.17,.97-2.3,1.46-3.37,1.46-1.31,0-2.55-.7-3.72-2.11l-11.27-13.48-11.27,13.48c-1.18,1.41-2.41,2.11-3.72,2.11-1.07,0-2.2-.49-3.37-1.46l-11.62-9.66c-1.38-1.17-2.06-2.4-2.06-3.67,0-1.11,.49-2.25,1.46-3.42l14.19-17.05Z"/>
        <path class="cls-2" d="M539.03,669.84v60.37c0,3.35-1.68,5.03-5.03,5.03h-15.09c-3.35,0-5.03-1.68-5.03-5.03v-60.37c0-3.35,1.68-5.03,5.03-5.03h15.09c3.35,0,5.03,1.68,5.03,5.03Z"/>
        <path class="cls-2" d="M553.07,724.92c-6.88-6.87-10.31-15.17-10.31-24.9s3.44-18.03,10.31-24.9c6.87-6.87,15.17-10.31,24.9-10.31,8.35,0,15.65,2.53,21.88,7.6,1.24,.94,1.86,1.93,1.86,2.97,0,.77-.37,1.59-1.11,2.46l-12.17,12.12c-1.11,1.34-2.13,2.01-3.07,2.01-.47,0-1.12-.33-1.96-1.01-.84-.67-2.65-1.01-5.43-1.01s-5.16,.98-7.12,2.94-2.94,4.33-2.94,7.12,.98,5.16,2.94,7.12c1.96,1.96,4.33,2.94,7.12,2.94,1.41,0,2.7-.25,3.87-.75,1.07-.84,2.08-1.26,3.02-1.26,1.14,0,2.16,.67,3.07,2.01l12.37,12.43c.87,.8,1.31,1.61,1.31,2.41,0,.94-.6,1.86-1.81,2.77-6.24,5.03-13.52,7.55-21.83,7.55-9.73,0-18.03-3.44-24.9-10.31Z"/>
        <path class="cls-2" d="M631.89,735.23c-9.73,0-18.03-3.44-24.9-10.31-6.87-6.87-10.31-15.17-10.31-24.9s3.44-18.03,10.31-24.9c6.87-6.87,15.17-10.31,24.9-10.31s18.03,3.44,24.9,10.31c6.87,6.88,10.31,15.18,10.31,24.9s-3.44,18.03-10.31,24.9c-6.87,6.88-15.18,10.31-24.9,10.31Zm0-45.27c-2.78,0-5.16,.98-7.12,2.94-1.96,1.96-2.94,4.33-2.94,7.12s.98,5.16,2.94,7.12c1.96,1.96,4.33,2.94,7.12,2.94s5.16-.98,7.12-2.94c1.96-1.96,2.94-4.33,2.94-7.12s-.98-5.16-2.94-7.12c-1.96-1.96-4.33-2.94-7.12-2.94Z"/>
      </g>
      <g>
        <path class="cls-2" d="M424.58,656.02c-10.21,4.31-21.84,2.34-18.61,.97,16.05-6.78,16.43-13.83,19.66-15.2,3.23-1.36,6.32-1.35,7.69,1.88,2.47,5.85-5.5,10.98-8.73,12.35Z"/>
        <path class="cls-2" d="M432.4,641.18c1.36-1.55,2.93-1.49,2.93-1.49,0,0-2.21-1.94-4.27,.41-1.42,1.62-.27,3.48,.61,4.5-.14-1.17-.08-2.49,.73-3.42Z"/>
      </g>
    </g>
  </g>
  <g>
    <g>
      <path class="cls-1" d="M317.34,120.04l-3.01,.92c-1.2,.39-2.38,.84-3.57,1.26l-3.56,1.27-1.78,.63c-.59,.22-1.17,.47-1.75,.71-3.47-1.37-7.06-2.78-10.7-4.02-3.62-1.19-7.34-2.36-11.14-3.44-1.47,3.68-2.84,7.31-4.13,10.89-1.23,3.67-2.36,7.32-3.4,10.9-2.17,1.32-4.32,2.69-6.48,4.03-2.14,1.37-4.21,2.85-6.32,4.27,.59-2.84,1.23-5.72,1.92-8.64,.73-2.86,1.53-5.72,2.38-8.64,.83-2.94,1.8-5.77,2.8-8.67,1.01-2.89,2.05-5.85,3.24-8.69l6.15-3.16c.66-.31,1.33-.62,1.99-.93-21.8-3.37-42.22-.32-57.45,11.54-15.85,12.34-23.82,32.48-25.49,55.58,1.61-2.07,3.25-4.11,4.93-6.12,12.23-2.06,24.28-3.06,35.97-3.03-1.83,1.74-3.6,3.53-5.41,5.3-1.74,1.83-3.5,3.64-5.21,5.5-3.73,.29-7.58,.6-11.36,1.1-1.9,.24-3.83,.49-5.75,.78-1.91,.3-3.83,.62-5.76,.96,.48,7.83,1.31,15.45,2.59,22.9-2.6,3.88-5.09,7.84-7.42,11.88,1.8,9.53,4.41,19.12,7.73,28.49,.13-.04,.26-.08,.39-.12,6.93-1.67,10.66,.17,17.41-2.8,0,0-.37-1.98-.91-4.96-.55-3-1.29-7.07-2.14-11.33-.13-2.27-.21-4.54-.24-6.77,.15-2.02,.91-4.06,2.26-5.72,1.42-.89,2.85-1.77,4.27-2.65,1.42-.88,2.91-1.65,4.35-2.47,6.8-.66,13.32-.64,19.92,.08,0,0-.06-2.97,.02-6.89,.04-1.96,.12-4.16,.24-6.34,.13-2.17,.35-4.26,.58-6.1,.48-2.2,.97-4.39,1.47-6.59,.67-2.53,1.8-3.79,2.91-4.54,1.12-.75,2.18-1.03,2.74-1.71,2.19-.21,4.37-.41,6.56-.59,4.56,.67,9.3,1.55,12.94,2.37,3.61,.82,6.07,1.4,6.08,1.4,0,0,.63-2.7,1.54-6.85,.91-4.16,2.24-9.58,3.43-15.28,.82-1.84,1.66-3.68,2.5-5.52,1.04-1.71,2.74-3.09,4.71-3.88,2.69-.22,5.39-.43,8.08-.62,4.11,1.85,10.22,4.15,15.14,5.93,4.95,1.8,8.79,3.16,8.79,3.16,0,0,.25-.57,.67-1.53,.42-.95,1-2.31,1.66-3.9,1.3-3.19,2.92-7.33,3.98-11.17,.32-2.07,.66-4.18,1.04-6.23,.05-.33,.21-.7,.43-1.1-6.79-4.09-13.78-7.74-20.85-10.88Zm-105.21,75.97c-.23-1.73-.41-3.45-.59-5.21-.18-1.75-.36-3.52-.48-5.27,1.76-.27,3.5-.53,5.23-.77,1.73-.25,3.49-.43,5.22-.62-3.29,3.83-6.37,7.83-9.38,11.88Zm18.76-55.43c1.06-.92,2.12-1.84,3.23-2.7h0s3.3-2.64,3.3-2.64c1.1-.88,2.19-1.76,3.34-2.59-.42,1.78-.77,3.61-1.1,5.42-.34,1.81-.66,3.6-.96,5.38h0c-1.84-.09-3.64-.11-5.47-.13-1.83-.01-3.67-.01-5.53,0l3.19-2.75Zm23.33,12.21l-4.78,3.82-.07-.09s0,0,0,0l.07,.09-1.19,.95-1.16,1-2.31,1.99c-11.68-.54-23.77-.06-36.08,1.49l1.41-1.57,1.45-1.53,2.91-3.05c1.95-2.02,3.99-3.96,5.98-5.94,4.02-.2,7.97-.33,11.89-.34,1.98,.01,3.94,.04,5.88,.09,1.94,.05,3.84,.1,5.79,.23,1.12-7.61,2.67-15.34,4.74-23.07,4.62-3.23,9.4-6.24,14.25-9.12-4.06,11.79-6.97,23.51-8.77,35.04Zm34.47-21.43l-6.71,3.45c1.1-3.27,2.28-6.58,3.55-9.93,3.41,1.05,6.76,2.17,10.01,3.31l-6.85,3.16Z"/>
      <path class="cls-1" d="M289.75,424.14c-3.27-9.56-5.15-19.83-5.35-29.93-.14-7.49,.84-15.03,1.98-22.41,1.06-6.88,2.62-13.68,4.6-20.35,5-16.85,12.48-33.25,22.32-47.83,5.81-8.61,12.37-16.83,19.65-24.24,7.7-7.83,16.33-14.83,25.42-20.97,10.54-7.12,21.91-12.51,33.64-17.34,11.66-4.8,23.74-8.64,36.12-11.05,22.04-4.29,44.92-4.7,66.71,1.26,7.16,1.96,14.13,4.61,20.77,7.9,20.99-30.57,31.05-57.08,16.85-70.77-21.08-20.33-138.41,14.98-198.74,63.43-106.12,85.22-119.5,173.59-101.82,206.33,8,14.83,31.73,14.06,63.62,.06-2.22-4.57-4.14-9.29-5.78-14.08Z"/>
      <path class="cls-1" d="M315.46,466.32c-2.25-2.21-4.35-4.58-6.35-7.03-5.29,2.6-10.73,5.04-16.38,7.24-1.44,.56-2.87,1.12-4.35,1.62l-2.2,.78c-.74,.26-1.52,.5-2.27,.75l-2.3,.74-2.69,.78c-1.79,.52-3.6,.97-5.41,1.4-7.24,1.73-14.63,2.66-21.96,2.65-3.66-.05-7.3-.34-10.88-.93-3.58-.6-7.08-1.54-10.47-2.8-6.77-2.52-13-6.53-17.98-11.78-5.01-5.22-8.75-11.57-11.29-18.36-1.28-3.4-2.27-6.92-3.02-10.5-.74-3.59-1.21-7.25-1.49-10.93-.28-3.69-.31-7.41-.2-11.13,.08-1.86,.17-3.72,.34-5.58l.12-1.39,.06-.7,.07-.63,.28-2.48c.09-.85,.21-1.59,.32-2.38,.11-.78,.21-1.57,.34-2.34,.26-1.54,.5-3.1,.8-4.62l.44-2.29,.49-2.27c.31-1.52,.69-3.01,1.04-4.51,2.94-11.95,6.97-23.33,11.67-34.31,4.71-10.98,10.12-21.53,16.07-31.73,5.96-10.19,12.44-20.02,19.4-29.48,6.97-9.45,14.38-18.56,22.23-27.26,7.85-8.71,16.11-17.04,24.77-24.94,4.32-3.96,8.75-7.81,13.28-11.54,4.53-3.73,9.13-7.38,13.84-10.87,4.71-3.5,9.5-6.91,14.39-10.17,4.89-3.26,9.86-6.41,14.91-9.42,5.06-3,10.19-5.88,15.4-8.63,5.22-2.73,10.5-5.33,15.85-7.8,10.38-4.76,20.89-9.32,31.56-13.6,10.68-4.27,21.53-8.27,32.63-11.84,5.55-1.78,11.17-3.45,16.88-4.97,2.85-.77,5.73-1.48,8.63-2.17,2.73-.63,6.21-1.42,9.94-2.11,14.62-2.76,29.57-4,43.39-1.84,3.45,.54,6.83,1.3,10.11,2.3,3.28,1.01,6.47,2.25,9.49,3.85,3.03,1.58,5.9,3.48,8.5,5.76,1.3,1.14,2.53,2.35,3.66,3.67,.58,.65,1.1,1.34,1.64,2.02,.5,.71,1.02,1.41,1.47,2.15,1.89,2.92,3.29,6.11,4.31,9.39,.98,3.29,1.62,6.66,1.87,10.07,.53,6.81-.16,13.71-1.68,20.59-.76,3.44-1.74,6.88-2.88,10.3-1.15,3.42-2.49,6.82-3.94,10.19-2.92,6.74-6.42,13.34-10.2,19.76l-1.29,2.14c-.42,.7-.86,1.43-1.24,2.03-.79,1.26-1.57,2.53-2.38,3.77-1.6,2.51-3.24,4.96-4.89,7.39-.2,.3-.41,.59-.61,.89,1.64,1.36,3.25,2.76,4.82,4.22,1.86,1.75,3.64,3.58,5.33,5.48,2.31-3.63,4.51-7.23,6.58-10.79,22.91-39.53,30.19-73.55,21.07-98.37-8.85-24.06-32.85-37.31-67.59-37.31-37.13,0-84.68,14.8-137.5,42.79-62.8,33.29-116.92,84.29-152.36,143.62-31.47,52.67-44.74,106.32-35.49,143.52,7.34,29.52,28.37,45.77,59.24,45.77,21.62,0,47.57-7.8,77.1-22.98-1.04-.92-2.05-1.86-3.04-2.83Z"/>
    </g>
    <g>
      <path class="cls-1" d="M713.03,371.11s-24.9-13.37-43.28,5.42c-21.31,21.78-25.43,33.64-43.32,38.51-17.88,4.87-47.11-1.03-58.9,5.02,0,0,18.94,6.34,33.22,11.67,14.28,5.34,34.92,22.47,60.69-4.71,0,0-10.84,1.79-18.32,1.17,0,0,19.95,1.27,30.13-32.11,5.06-16.61,18.88-21.43,39.78-24.98Z"/>
      <path class="cls-1" d="M649.43,381.37c12.79-26.01,43.05-42.88,43.05-42.88-44.8-1.34-66.03,30.34-71,45.91-2.93-4.76,.79-17.62,.79-17.62-15.9,29.12-33.16,44.06-33.16,44.06,9.49-4.46,44.77,2.14,60.32-29.46Z"/>
      <path class="cls-1" d="M592.4,384.42c16.39-35.94,32.99-33.16,32.99-33.16-36,.65-52.58,21.32-55.47,35.89-1.03-5.81-5.19-12.04-5.19-12.04,2.75,13.45-21,51.53-21,51.53,7.67-3.49,34.92-12.05,48.68-42.23Z"/>
    </g>
    <g>
      <path class="cls-2" d="M232.56,268.56c-1.62,3.74-5.73,5.27-9.25,3.42-3.51-1.84-5-6.64-3.24-10.72,1.87-4,6.28-5.41,9.64-3.25,3.39,2.18,4.57,6.86,2.84,10.54Zm22.47-37.39c-2.48,3.22-6.99,3.77-10.13,1.2-3.13-2.57-3.57-7.48-.91-10.93,2.7-3.41,7.46-3.77,10.4-.99,2.98,2.81,3.16,7.53,.63,10.72Zm26.43-25.95c-2.99,2.73-7.62,2.54-10.38-.47-2.75-3.01-2.44-7.84,.74-10.73,3.27-2.8,8.06-2.43,10.62,.73,2.57,3.17,2.11,7.84-.98,10.47Zm34.76-25.15c-1.76,1.04-3.81,1.28-5.69,.88-1.87-.39-3.61-1.46-4.74-3.15-1.14-1.69-1.45-3.69-1.01-5.56,.44-1.86,1.67-3.53,3.52-4.62,3.7-2.17,8.43-1.06,10.52,2.43,2.09,3.5,.91,7.96-2.59,10.02Zm40.17-19.15c-3.83,1.44-8.37-.28-10.14-3.92-1.78-3.64,.05-7.88,4.09-9.4,4.02-1.57,8.64,.4,10.21,4.11,1.56,3.71-.33,7.73-4.15,9.22Z"/>
      <g>
        <path class="cls-2" d="M360,206.32c4.7-2.79,9.47-5.46,14.3-8.02-7.34-2.21-14.87-4.16-22.57-5.86-2.18,7.58-4.04,15.14-5.6,22.64,4.55-3.03,9.17-5.96,13.87-8.77Z"/>
        <path class="cls-2" d="M240.84,453.27c-2.6-.85-5.1-2-7.41-3.46-2.31-1.46-4.43-3.23-6.28-5.24-3.72-4.02-6.32-8.98-7.96-14.19-3.11,7.84-4.4,16.87-3.22,25.86,8.59,1.25,17.24,.17,24.87-2.98Z"/>
        <path class="cls-2" d="M389.02,191.06c4.97-2.28,9.96-4.5,14.98-6.67-7.15-2.78-14.4-5.44-21.72-8.01-2.99,7.31-5.64,14.63-7.98,21.93,4.85-2.53,9.76-4.95,14.72-7.25Z"/>
        <path class="cls-2" d="M549.97,158.38c-2.12-.4-4.29-.63-6.49-.71-4.38-.17-8.85,.31-13.22,1.35,2.53,1.02,4.96,2.33,7.12,4.02,.28,.2,.54,.42,.8,.65,.26,.22,.52,.44,.77,.67,.49,.48,.99,.94,1.44,1.46,.47,.49,.88,1.04,1.32,1.57,.39,.56,.81,1.1,1.15,1.7,1.46,2.32,2.43,4.91,3.04,7.57,.58,2.67,.82,5.41,.74,8.14,2.68-3.7,4.87-7.7,6.52-11.9,1.62-4.18,2.66-8.56,3.04-12.93-1-.35-2.05-.63-3.07-.91-1.06-.25-2.09-.5-3.16-.69Z"/>
        <path class="cls-2" d="M273.22,452.86c-5.3,1.34-10.73,2.19-16.2,2.44-2.73,.08-5.47,0-8.19-.3-2.72-.31-5.4-.89-8-1.74,1.38,3.26,3.21,6.45,5.47,9.49,2.27,3.02,4.96,5.93,8.1,8.66,8.04-5.37,14.4-11.9,18.8-18.56Z"/>
        <path class="cls-2" d="M288.82,447.84c-5.09,1.98-10.29,3.7-15.6,5.02,1.55,.99,3.21,1.97,4.96,2.85,.88,.45,1.78,.89,2.71,1.32l2.68,1.26c.9,.41,1.83,.83,2.74,1.23l2.75,1.17c1.86,.78,3.72,1.5,5.61,2.21,3.66-7.2,6.62-14.45,9.14-21.7-4.91,2.42-9.9,4.66-15,6.64Z"/>
        <path class="cls-2" d="M419.14,178.08c5.08-2.03,10.18-3.99,15.31-5.86-6.98-3.19-14.1-6.23-21.32-9.14-3.22,7.09-6.25,14.2-9.14,21.31,5.02-2.17,10.07-4.28,15.15-6.31Z"/>
        <path class="cls-2" d="M307.46,245.44c4.03-3.69,8.16-7.28,12.38-10.75-7.65-.67-15.41-1.07-23.27-1.18-.6,7.85-.92,15.6-.95,23.28,3.85-3.88,7.81-7.66,11.85-11.35Z"/>
        <path class="cls-2" d="M245.6,321.51c2.76-4.72,5.64-9.36,8.65-13.93-7.5,1.6-15.04,3.52-22.6,5.78,1.74,7.7,3.77,15.23,6.09,22.54,2.48-4.88,5.1-9.68,7.86-14.4Z"/>
        <path class="cls-2" d="M230.78,350.75c2.16-5.02,4.48-9.97,6.96-14.85-7.28,2.43-14.55,5.24-21.8,8.48,2.65,7.49,5.61,14.75,8.93,21.67,1.78-5.17,3.76-10.27,5.92-15.3Z"/>
        <path class="cls-2" d="M263.63,294.12c3.24-4.4,6.59-8.72,10.05-12.96-7.63,.83-15.32,1.96-23.06,3.38,.93,7.81,2.15,15.51,3.64,23.04,3.01-4.57,6.13-9.06,9.38-13.46Z"/>
        <path class="cls-2" d="M209.63,425.23c3.15,2.16,6.35,3.88,9.55,5.16-.83-2.61-1.45-5.28-1.89-7.97-.43-2.7-.68-5.43-.82-8.16-.13-2.73-.09-5.47,.02-8.2,.14-2.73,.37-5.45,.71-8.17-1.49,1.2-3,2.43-4.46,3.84-1.49,1.39-2.91,2.91-4.34,4.53-2.81,3.25-5.51,6.96-7.9,11.08,2.94,3.09,5.99,5.71,9.12,7.88Z"/>
        <path class="cls-2" d="M220.22,381.77c1.29-5.31,2.88-10.55,4.65-15.72-6.86,3.43-13.68,7.32-20.34,11.88,3.81,7.13,8,13.87,12.68,19.96,.67-5.43,1.72-10.81,3.01-16.12Z"/>
        <path class="cls-2" d="M332.74,224.55c4.39-3.26,8.84-6.43,13.39-9.46-7.54-1.44-15.22-2.59-23.04-3.49-1.4,7.74-2.46,15.46-3.25,23.09,4.22-3.48,8.51-6.88,12.9-10.13Z"/>
        <path class="cls-2" d="M449.98,166.89c5.21-1.67,10.45-3.22,15.73-4.63-6.67-3.79-13.59-7.36-20.66-10.75-3.78,6.87-7.29,13.78-10.58,20.71,5.14-1.87,10.31-3.66,15.52-5.33Z"/>
        <path class="cls-2" d="M514.28,155.71c2.73,.18,5.45,.5,8.13,1.03,2.68,.53,5.33,1.25,7.86,2.28-.7-3.09-1.72-6.13-3.06-9.19-1.35-3.06-3.02-6.12-5.08-9.16-9.38,3.96-17.7,9.45-24.23,15.43,5.44-.53,10.93-.74,16.38-.39Z"/>
        <path class="cls-2" d="M546.64,184.8c-.14,5.47-1.29,10.88-2.91,16.09-1.62,5.22-3.72,10.29-6.07,15.22,3.89-1.96,7.85-4.36,11.73-7.21,3.87-2.84,7.66-6.12,11.22-9.77-4.15-6.14-8.92-10.79-13.97-14.33Z"/>
        <path class="cls-2" d="M529.88,230.55c-2.8,4.7-5.76,9.29-8.84,13.81,3.76-.74,7.54-1.55,11.32-2.48,1.9-.45,3.79-.94,5.69-1.45,.94-.23,1.93-.57,2.91-.89l1.48-.51,.75-.26c.25-.09,.5-.17,.76-.29-.99-8.93-3.22-16.42-6.3-22.36-2.36,4.94-4.99,9.73-7.78,14.44Z"/>
        <path class="cls-2" d="M284.35,268.71c3.66-4.06,7.42-8.03,11.26-11.91-7.67,.09-15.43,.45-23.27,1.1,.16,7.86,.61,15.63,1.33,23.27,3.46-4.24,7.01-8.4,10.68-12.46Z"/>
        <path class="cls-2" d="M475.27,147.48l-.99,1.25c-.31,.41-.56,.82-.84,1.23l-1.62,2.44c-2.13,3.27-4.17,6.55-6.11,9.87,5.28-1.42,10.61-2.67,15.97-3.73,2.68-.53,5.37-1.01,8.08-1.41,2.7-.41,5.41-.76,8.13-1.02-2.17-2.47-4.76-4.88-7.79-7.17-3.03-2.3-6.5-4.47-10.41-6.47-.81,.84-1.6,1.68-2.35,2.51-.73,.83-1.41,1.67-2.08,2.5Z"/>
      </g>
      <path class="cls-2" d="M479.78,478.61c.66-1.75,1.47-11.05,17.43-6,2.83-7.04,9.36-18.63,15.77-9.92,0,0,11.98-22.96,17.7-10.56,0,0,5.81-11.72,11.54-8.08,5.73,3.63,3.26,13.15,3.26,13.15,0,0,7.23,11.77,7.35,16.35,.86,32.49-53.15,62.17-97.85,30.4-25.88-6.25-55.17-23.55-19.99-38.92,22.89-10,41.15,23.32,44.79,13.58Z"/>
      <path class="cls-2" d="M532.58,271.25c-26.3-25.93-77.57-43.17-144.73-12.47-67.4,30.81-87.77,97.04-88.71,132.37-.83,31.6,21.2,73.53,55.59,81.1,36.58,8.05,89.69-33.09,89.69-33.09,4.38,7.23,15.2,18.3,22.99,13.53,7.78-4.77,7.08-16.11,2.86-25.62,8.42,8.44,15.95,13.64,23.76,8.09,8.16-5.8,2.97-17.1-2.37-26.59,5.75,7.93,16.64,17.73,23.29,12.54,7.7-6.02,2.13-17.07-3.74-25.47,6.88,8.03,16.11,17.39,24.69,9.75,8.12-7.22,1.26-21.5,4.09-28.75,11.11-28.47,35.02-63.55-7.41-105.39Zm2.07,36.14c2,.1,3.55,1.8,3.45,3.8-.1,2-1.8,3.55-3.8,3.45-2-.1-3.55-1.8-3.45-3.8,.1-2,1.8-3.55,3.8-3.45Zm-12.13-17.75c2.67,.13,4.73,2.4,4.61,5.07-.13,2.67-2.4,4.73-5.07,4.61-2.67-.13-4.73-2.4-4.6-5.07,.13-2.67,2.4-4.73,5.07-4.6Zm-12.38-4.72c-.16,3.34-3,5.92-6.34,5.76-3.34-.16-5.92-3-5.76-6.34,.16-3.34,3-5.92,6.34-5.76,3.34,.16,5.92,3,5.76,6.34Zm-75.89-33.47c30.47-7.7,55.55-1.58,72.48,10.68,1.37,6.59-5.87,10.86-19.66,.84,8.1,13.84-9.79,28.36-15.92,3.28-8.91,21.39-25.83,10.75-19.25-7.33-14.59,8.34-25.82,1.57-17.65-7.47Zm-59.23,28.58c1.96-2.32,4.85-3.99,6.42-4.69,4.99-2.25,27.26,6.89,31.52,6.83,4.26-.06,11.55-.53,11.47,3.7-.08,4.24-3.6,7.72-7.86,7.78-2.87,.04-18.14-5.59-27.82-10.57,8.2,5.53,17.76,13.35,19.51,15.09,2.96,2.95,2.87,7.81-.2,10.85-3.07,3.04-7.96,3.11-10.92,.16-1.74-1.74-9.57-11.26-15.09-19.42,4.97,9.64,10.56,24.82,10.51,27.67-.08,4.24-3.6,7.72-7.86,7.78-4.26,.06-3.76-7.18-3.68-11.42,.08-4.24-9.19-29.99-5.98-33.77Zm-47.84,134.44c3.94,6.63,.74,17.24-5.28,16.68-7.87-12.27-12.12-26.76-11.76-40.35,.33-12.51,3.77-28.39,11.23-45.14,7.66-4.09,15.03,7.58,6.82,19.53,15.04-2.43,23.93,15.89,4.02,24.27,23.61,4.02,17.58,33.16-5.03,25.01Zm29.28,16.04c-2.31,2.41-6.15,2.5-8.56,.18-2.42-2.31-2.5-6.15-.18-8.56,2.31-2.41,6.15-2.5,8.56-.18,2.42,2.31,2.5,6.15,.18,8.56Zm13.71,12.81c-1.85,1.93-4.92,2-6.85,.15-1.93-1.85-2-4.92-.15-6.85,1.85-1.93,4.92-2,6.85-.15,1.93,1.85,2,4.92,.15,6.85Zm25.21,6.84c-1.85,1.93-4.92,2-6.85,.15-1.93-1.85-2-4.92-.15-6.85,1.85-1.93,4.92-2,6.85-.15,1.93,1.85,2,4.92,.15,6.85Zm48.05-75.39c9.62,49.78-66.4,70.08-77.7,9.66-11.15-59.59,67.47-62.64,77.7-9.66Zm53.56,19.14c-3.69,4.46-15.31-1.82-23.4,3.38-6.48,4.17-9.39,16.69-16.73,15.42-7.34-1.27-1.2-35.44,6.46-39.14,7.65-3.7,37.36,15.89,33.67,20.34Zm1.82-92.33c46.67,25.14,21.05,79.51-25.4,65.52-46.03-13.86-29.25-94.96,25.4-65.52Z"/>
      <g>
        <path class="cls-2" d="M619.41,267.35c-.69-1.37-1.89-2.38-3.28-2.78-1.3-.37-2.64-.19-3.78,.51-1.9,1.16-2.82,3.6-2.24,5.92,.11,.42,.26,.83,.45,1.22l10.78,21.4c.69,1.37,1.89,2.38,3.28,2.78,.43,.12,.88,.19,1.32,.19,.38,0,.76-.05,1.13-.14,.46-.12,.91-.3,1.33-.56,2.3-1.41,3.09-4.55,1.79-7.14l-10.78-21.4Z"/>
        <path class="cls-2" d="M651.61,261.59c-.33-1.46-1.22-2.74-2.45-3.51-1.13-.71-2.45-.93-3.76-.63-1.22,.3-2.27,1.08-2.95,2.18-.76,1.23-.99,2.77-.64,4.24l4.82,20.17c.62,2.48,2.76,4.18,5.08,4.18,.36,0,.73-.04,1.09-.13h.02c1.22-.31,2.27-1.08,2.95-2.19,.76-1.23,.99-2.77,.64-4.24l-4.8-20.08Zm1.01,25.67h0s0,0,0,0Z"/>
        <path class="cls-2" d="M681.73,256.04c-1.32-.23-2.63,.1-3.69,.92-1.15,.88-1.89,2.27-2.04,3.79l-1.86,20.14c-.04,.4-.04,.8,.01,1.2,.27,2.43,2.04,4.4,4.28,4.78,.27,.05,.54,.07,.81,.07,.18,0,.35-.01,.52-.03h0c.85-.1,1.67-.43,2.36-.96,1.15-.88,1.89-2.26,2.03-3.79l1.86-20.15c.27-2.9-1.62-5.52-4.29-5.98Z"/>
        <path class="cls-2" d="M714.79,262.34c-1.26-.59-2.65-.61-3.91-.06-1.33,.58-2.36,1.74-2.82,3.2l-6.78,21.11c-.22,.69-.31,1.41-.27,2.14,.13,2.05,1.29,3.83,3.04,4.65,.64,.3,1.34,.46,2.03,.46,.09,0,.19,0,.28,0,.55-.03,1.08-.16,1.6-.39,1.33-.58,2.36-1.74,2.82-3.2l6.78-21.11c.86-2.67-.36-5.66-2.77-6.79Z"/>
        <path class="cls-2" d="M745.99,277.91c-1.09-.99-2.51-1.45-3.91-1.27-1.41,.18-2.67,.99-3.47,2.23l-12.41,19.17c-.7,1.07-1,2.39-.85,3.71,.16,1.38,.79,2.64,1.77,3.54,.93,.85,2.11,1.31,3.31,1.31,.17,0,.35,0,.52-.03h.07c1.4-.19,2.67-1,3.47-2.24l12.41-19.18c1.46-2.26,1.05-5.44-.92-7.25Z"/>
        <path class="cls-2" d="M752.48,325.68c.2,.03,.4,.04,.6,.04h.07c1.16-.02,2.29-.47,3.17-1.27l15.92-14.41c1.98-1.79,2.36-4.98,.87-7.26-.82-1.26-2.1-2.09-3.52-2.27-1.38-.17-2.78,.27-3.84,1.23l-15.92,14.41c-1.16,1.05-1.81,2.59-1.79,4.23,.02,1.09,.33,2.14,.91,3.03,.82,1.26,2.1,2.09,3.52,2.27Z"/>
        <path class="cls-2" d="M792.15,341.93c-.19-1.52-.97-2.88-2.16-3.72-1.1-.78-2.44-1.06-3.75-.78l-21.46,4.63c-2.16,.46-3.8,2.35-4.08,4.69-.06,.48-.06,.96,0,1.42,.19,1.52,.97,2.88,2.16,3.72,.65,.46,1.4,.76,2.17,.85h0c.19,.02,.38,.04,.56,.04,.34,0,.67-.04,1.01-.11l21.46-4.63c2.64-.57,4.43-3.26,4.08-6.12Z"/>
        <path class="cls-2" d="M785.32,371.61l-14.68,.07c-1.3,0-2.52,.54-3.43,1.49-1,1.04-1.55,2.51-1.5,4.03,0,.16,.02,.31,.03,.46,.31,2.77,2.49,4.85,5.08,4.85h.02l14.68-.07c.17,0,.34-.01,.51-.03,1.12-.13,2.13-.63,2.93-1.46,1-1.04,1.55-2.52,1.49-4.03-.1-2.94-2.43-5.33-5.13-5.31Z"/>
        <path class="cls-2" d="M782.06,411.5l-15.19-7.8c-1.24-.64-2.68-.71-3.95-.2-1.34,.54-2.39,1.67-2.89,3.11-.27,.8-.37,1.67-.27,2.52,.21,1.89,1.29,3.5,2.88,4.32l15.19,7.8c.69,.35,1.44,.53,2.19,.53,.18,0,.35-.01,.53-.03,.42-.05,.83-.15,1.23-.31,1.34-.54,2.39-1.67,2.88-3.11,.9-2.62-.24-5.63-2.61-6.84Z"/>
        <path class="cls-2" d="M768.97,443l-17.13-13.14c-1.14-.88-2.59-1.21-3.95-.92-1.4,.3-2.6,1.23-3.3,2.54-.54,1.01-.76,2.16-.62,3.33,.17,1.54,.94,2.93,2.12,3.83l17.13,13.14c.87,.67,1.91,1.02,2.96,1.02,.18,0,.35-.01,.53-.03,.15-.02,.31-.04,.46-.08,1.39-.3,2.6-1.23,3.3-2.54,1.28-2.39,.62-5.53-1.49-7.16Z"/>
      </g>
    </g>
  </g>
</svg>